<?xml version="1.0" encoding="utf-8"?>
<!-- Generator: Adobe Illustrator 24.2.1, SVG Export Plug-In . SVG Version: 6.00 Build 0)  -->
<svg version="1.1" id="Layer_1" xmlns="http://www.w3.org/2000/svg" xmlns:xlink="http://www.w3.org/1999/xlink" x="0px" y="0px"
	 viewBox="0 0 140 140" style="enable-background:new 0 0 140 140;" xml:space="preserve">
<style type="text/css">
	.st0{fill:#FFFFFF;}
	.st1{fill:#202020;}
</style>
<g>
	<ellipse class="st0" cx="70" cy="70" rx="50" ry="25"/>
	<path d="M70,45.5c27.29,0,49.5,10.99,49.5,24.5S97.29,94.5,70,94.5S20.5,83.51,20.5,70S42.71,45.5,70,45.5 M70,44.5
		c-27.89,0-50.5,11.42-50.5,25.5S42.11,95.5,70,95.5s50.5-11.42,50.5-25.5S97.89,44.5,70,44.5L70,44.5z"/>
</g>
<g>
	<ellipse cx="70" cy="70" rx="12" ry="25.5"/>
	<g>
		<g>
			<g>
				<g>
					<path class="st1" d="M81.33,70c0.09,0.06,0.28,0.03,0.24-0.15l-0.33-0.12L81.33,70z"/>
					<path class="st1" d="M81.92,68.81c-0.17-0.2-0.45-0.43-0.75-0.29c0.32,0.19,0.19,0.25,0.58,0.46c0.04,0.18-0.1,0.31-0.22,0.28
						c0.09,0.06-0.07,0.27,0.14,0.37c0.25-0.23,0.25-0.52,0.04-0.82C81.77,68.74,81.86,68.8,81.92,68.81z"/>
					<path class="st1" d="M78.93,51.84l0.01,0.12C78.95,51.92,78.95,51.88,78.93,51.84z"/>
					<path class="st1" d="M71.42,44.02c0.09,0.02,0.13,0,0.14-0.03C71.47,43.98,71.4,43.98,71.42,44.02z"/>
					<path class="st1" d="M69.37,43.55c0.05,0,0.09,0.01,0.13,0.01C69.45,43.54,69.4,43.52,69.37,43.55z"/>
					<path class="st1" d="M78.93,51.84c0-0.1-0.02-0.2-0.04-0.31C78.79,51.56,78.9,51.7,78.93,51.84z"/>
					<path class="st1" d="M81.02,66.49c0.02,0.06,0.05,0.1,0.1,0.15c-0.02-0.05-0.03-0.09-0.05-0.14L81.02,66.49z"/>
					<path class="st1" d="M80.85,56.24l0.02,0.08c0.04,0.01,0.09,0.03,0.15,0.03L80.85,56.24z"/>
					<path class="st1" d="M81.8,59.8c-0.01-0.08-0.29-0.06-0.42-0.06c0.12,0.02,0.19,0.07,0.23,0.14
						C81.66,59.87,81.72,59.84,81.8,59.8z"/>
					<path class="st1" d="M82.1,65.61l0.05,0.1C82.13,65.68,82.11,65.64,82.1,65.61z"/>
					<path class="st1" d="M80.08,53.71c0.04-0.02,0.07-0.05,0.08-0.07C80.13,53.66,80.1,53.68,80.08,53.71z"/>
					<path class="st1" d="M80.51,74.08c0.02,0,0.03,0,0.05,0C80.53,74.06,80.51,74.06,80.51,74.08z"/>
					<path class="st1" d="M82.07,70l0.01,0.06c0.05,0.01,0.11,0.01,0.16,0.01L82.07,70z"/>
					<path class="st1" d="M65.6,44.56c0.01,0,0.01,0,0.02-0.01C65.68,44.47,65.64,44.51,65.6,44.56z"/>
					<path class="st1" d="M57.01,74.21c0.23-0.37,0.36,0.55,0.6,0C57.51,74.27,57.14,73.76,57.01,74.21z"/>
					<path class="st1" d="M81.05,66.4c-0.01-0.05-0.01-0.1-0.01-0.15C81.03,66.32,81.04,66.37,81.05,66.4z"/>
					<path class="st1" d="M57.61,74.21L57.61,74.21l0.02-0.06C57.63,74.18,57.62,74.19,57.61,74.21z"/>
					<path class="st1" d="M60.58,51.15c0.05,0.01,0.1-0.01,0.15-0.02C60.71,51.12,60.67,51.13,60.58,51.15z"/>
					<path class="st1" d="M64.31,46.4l-0.13,0.08C64.24,46.46,64.28,46.43,64.31,46.4z"/>
					<path class="st1" d="M59.76,54.15c-0.05,0.07-0.09,0.08-0.09,0.19c0.02,0,0.03-0.01,0.04-0.02
						C59.69,54.27,59.69,54.22,59.76,54.15z"/>
					<path class="st1" d="M58.81,57.17c0.03-0.01,0.05-0.03,0.07-0.04c0-0.03,0.01-0.07,0.01-0.1L58.81,57.17z"/>
					<path class="st1" d="M79.05,83.1c0.09-0.04,0.19-0.06,0.28-0.06C79.12,83.03,79.18,82.59,79.05,83.1z"/>
					<path class="st1" d="M81.18,66.48c-0.07-0.01-0.11-0.04-0.13-0.08l0.02,0.1C81.12,66.51,81.16,66.51,81.18,66.48z"/>
					<path class="st1" d="M61.8,55.02l-0.2,0.43C61.68,55.34,61.75,55.18,61.8,55.02z"/>
					<path class="st1" d="M65.95,92.5l0.09,0.05C66.02,92.51,65.99,92.49,65.95,92.5z"/>
					<path class="st1" d="M61.22,56.8c-0.12,0.05-0.2,0.12-0.26,0.2c0.02,0.03,0.03,0.05,0.05,0.07L61.22,56.8z"/>
					<path class="st1" d="M79.33,83.04L79.33,83.04L79.33,83.04z"/>
					<path class="st1" d="M79.44,79.83c-0.11,0.44,0.31,0.28,0.49,0.42c-0.02,0.56-0.32,0.19-0.55,0.33
						c0.02,0.35,0.29,0.68,0.22,0.93c-0.06,0-0.1,0.05-0.16-0.03c0.22,0.43-0.26,1.03-0.02,1.53c-0.04,0.02-0.07,0.03-0.1,0.03
						c0.2-0.01,0.38,0.03,0.51,0.08c-0.05,0.2,0.12,0.44-0.14,0.44c0.04-0.12-0.05-0.16-0.1-0.24l0.04,0.24
						c-0.39,0.09-0.03-0.32-0.28-0.39c-0.01,0.43,0.14,1-0.07,1.27c-0.34-0.04,0.13-0.75-0.29-0.43l0.26-0.44
						c-0.62,0.21,0.12-0.28-0.53-0.11c-0.26,0.59-0.06,0.74-0.36,1.32c0.13,0.2,0.28,0.05,0.41,0.25c0,0.99-1.02,0.39-0.87,1.17
						c0.14,0.24,0.51,0.47,0.11,0.83l-0.29-0.3c-0.28,0.55,0.37,0.56-0.14,1.05c-0.07-0.16,0.08-0.5,0.01-0.43
						c-0.44,0.26,0.07,0.36-0.07,0.66l-0.34-0.09c-0.26,0.6-0.35,1.38-0.71,2.02c-0.06-0.09-0.09-0.25-0.27-0.16
						c-0.17,0.43-0.43,0.85-0.78,1.17c-0.34,0.33-0.68,0.66-1.06,0.87l-0.01,0.43c-0.06,0.05-0.19,0.01-0.17-0.09
						c-0.3,0.15,0.12,0.14,0.09,0.34c-0.12,0.15-0.29,0.06-0.27-0.09c-0.22,0.56-0.94,1.49-1.63,1.45l0.06-0.13
						c-0.43,0.1-0.19,0.82-0.71,0.68l0.06-0.07c-0.93,0.3-2.06,0.48-2.7-0.04c-0.24,0.4-0.82-0.46-1.09,0.08
						c-0.41-0.5-0.2-0.56-0.78-1.07c-0.16-0.13-0.46,0.11-0.71,0l0.18-0.25l-0.49,0.03l0.08-0.4c-0.08-0.03-0.17-0.06-0.24-0.1
						c0.05,0.09,0.07,0.24,0,0.3c-0.4-0.17-0.55-0.86-0.44-0.96c-0.29-0.15-0.56-0.34-0.82-0.55c0.11-0.06,0.24,0.04,0.38,0.09
						c-0.56-0.21,0.2-0.28-0.31-0.47c-0.02,0.09-0.17,0.09-0.22,0.12c0-0.3-0.33-0.71-0.6-1.02L64.25,90
						c-0.17-0.32-0.39-0.63-0.63-0.94c-0.22-0.33-0.43-0.68-0.62-1.05c0.05,0.31-0.31,0.42-0.46,0.21l0.25-0.23
						c-0.25-0.05,0.01,0.28-0.36,0.1c-0.11-0.3,0.24-0.35,0.41-0.24l-0.28-0.29c0.08-0.06,0.16,0,0.29-0.04
						c-0.26-0.05,0.04-0.73-0.37-0.79l0.08-0.06c-0.33-0.76-0.58-1.06-0.81-1.71c-0.27,0.08-0.3-0.19-0.58-0.31
						c-0.1-0.51-0.05-1.11-0.23-1.69c-0.25-0.37-0.26-0.06-0.48-0.2c0.24-0.1,0.05-0.68,0.31-0.42c-0.25-0.69-0.28-0.89-0.69-1.76
						c-0.08,0.12-0.1,0.24-0.2,0.2c-0.08-0.16,0.02-0.4,0.14-0.4l0.04,0.04c-0.63-0.95,0.29-2.51-0.37-3.24l0.03,0.04l-0.38-0.82
						c0-0.4,0.22,0.21,0.34-0.1c-0.54-0.88-0.12-1.47-0.45-2.21c0.36-0.33,0.3-0.85,0.22-1.4c-0.08-0.55-0.16-1.13,0.07-1.53
						l-0.18,0.05c-0.18-0.2,0.1-0.25,0.13-0.41c-0.14,0.02-0.15,0.23-0.25,0.1c-0.26-1.76,0.29-3.64,0.6-5.4
						c0.09-0.65-0.9-0.46-0.37-1.24l0.3,0.27c-0.12-0.68-0.04-1.35,0.06-2.02c0.13-0.66,0.26-1.32,0.2-1.99
						c0.06,0.09,0.16,0.11,0.14,0.24c0.27-0.23,0.21-0.99,0.02-1.03c0.07-0.19,0.18-0.01,0.31-0.11c0.2-0.23-0.15-0.74,0.12-0.83
						c0.04-0.02,0.06,0.09,0.07,0.15c-0.07-0.2,0.21-0.8-0.09-0.7c0.25-0.44,0.13-0.93,0.39-1.25c-0.23-0.33,0.37-0.75-0.03-0.96
						c0.42,0.17,0.63-0.68,0.53-1.04c0.09,0.14,0.22-0.2,0.36-0.03c0.11-0.33,0.14-0.66-0.1-0.68c0.74-0.39,0.1-1.36,0.88-1.41
						c0.08-0.53,0.24-0.99,0.38-1.46c0.13-0.48,0.32-0.91,0.53-1.32c0.36,0.26-0.51,0.88-0.06,1.09c0.27-0.82,0.2-1.48,0.8-2.11
						c0.19-0.14,0.08,0.22,0.1,0.32c0.18-0.39,0.45-0.71,0.69-1.02c0.26-0.3,0.53-0.55,0.7-0.91c0.03,0.03,0,0.12-0.03,0.2
						c0.09-0.12,0.28-0.19,0.13-0.33l-0.06,0.14c-0.38-0.05,0-0.88-0.05-1c0.18,0.61,0.69-0.35,0.83,0.48
						c0.05-0.09,0.09-0.24-0.01-0.34c0.14-0.06,0.22-0.02,0.2,0.2c0.33-0.41,0.07-0.48,0.48-0.7c0.05,0.09-0.01,0.16,0.01,0.29
						c0.1-0.27,0.22-0.56,0.61-0.68c0,0.07,0.07,0.12-0.03,0.17c0.29-0.16,0.52-0.33,0.77-0.53c0.25-0.22,0.56-0.3,0.94-0.25
						c-0.17,0.45,0.26,0.11,0.31,0.48c0.12-0.06,0.24-0.09,0.37-0.11l-0.15-0.2c0.33,0.05,0.67-0.19,0.95-0.04l-0.28,0.13l0.32,0
						l0.32,0.07c-0.1-0.08-0.21-0.18-0.32-0.24c0.39-0.1,0.06-0.48,0.52-0.23c-0.11,0,0.36,0.12,0.47,0.39l0,0
						c0.22-0.07,0.44-0.09,0.65,0.13c0.01,0.14-0.24,0.34-0.23,0.43c0.29-0.18,0.79,0.29,1.14,0.19c-0.11,0.02-0.22,0.18-0.22,0.22
						l0.27-0.11c0.09,0.17,0.08,0.22-0.03,0.33c0.37,0.35,0.16-0.48,0.52,0.06c-0.05-0.01-0.06,0.03-0.16,0
						c0.44,0.42,0.98,0.71,1.3,1.19c-0.16,0.37-0.41-0.29-0.51,0.06c0.32,0.24,0.65,0.52,0.98,0.79c0.33,0.27,0.66,0.57,0.82,0.94
						l-0.05-0.15c0.5-0.19,0.1,0.65,0.53,0.86c-0.09-0.07-0.32,0.04-0.26,0.03c0.24,0.49,0.65,0.92,1.2,1.59l-0.17-0.03
						c0.06,0.34,0.3,0.81,0.38,1.16c0.17,0.04,0.23,0.24,0.36,0.05c-0.26,1.28,1.13,1.83,0.85,2.96c-0.03-0.11-0.2-0.23-0.17-0.14
						l0.35,0.76c0.2-0.13,0.1-0.14,0.23-0.37c0.16,0.06,0.33,0.26,0.38,0.46c-0.25-0.32-0.36,0.11-0.44,0.3
						c0.06-0.05,0.15-0.01,0.22-0.05c-0.28,0.53,0.47-0.05,0.37,0.6l-0.13,0c0.13,0.2,0.33,0.36,0.35,0.61
						c-0.24,0.16-0.17-0.2-0.39-0.16c0.09,0.32,0.64,0.53,0.45,0.9c-0.1-0.12-0.15-0.33-0.26-0.45c-0.23,0.4-0.15,0.42-0.14,0.67
						l0-0.03l-0.01,0.59l0.05-0.16c0.78,0.27,0.31,0.81,0.85,1.29c-0.52-0.47-0.26-0.05-0.57-0.03c-0.06,0.16-0.11,0.39-0.21,0.34
						c0.29,0.22-0.11,0.47,0.3,0.78c-0.09,0.03,0.04,0.28-0.21,0.26c0.13,0.33,0.15-0.11,0.28-0.1c0.43,0.48-0.24,1.3,0.32,2.01
						c0.27,0.64,0.61,0.73,0.82,1.35c-0.14,0.22-0.37-0.14-0.37-0.14c-0.12,0.35-0.07,0.6,0.06,0.91c-0.09-0.06-0.16,0.01-0.26,0.12
						c0.04,0.25,0.37,0.15,0.25,0.49c-0.11-0.05-0.29-0.12-0.41-0.23c0.11,0.29,0.32,0.58,0.42,0.89c-0.17,0.09-0.26-0.18-0.38-0.28
						c0.1,0.34,0.18,0.9,0.46,1l0.09-0.23c0.02,0.13-0.23,0.07-0.28-0.02c-0.22-0.29,0.08-0.44,0.18-0.46l0.07,0.22
						c0.58-0.26-0.14-0.89-0.14-1.34l0.43,0.16l-0.38-0.44c0.1-0.11,0.33-0.19,0.41,0.03c0.18-0.34-0.17-0.28,0.04-0.57
						c0.03-0.03,0.05-0.02,0.07,0.01l-0.15-0.31c0.09,0.05,0.29-0.08,0.24,0.12c0.21-0.6-0.39-0.89-0.1-1.13l0.03,0.04
						c-0.24-0.77-0.31-0.04-0.74-0.59l0.7-0.49l-0.31-0.04c0-0.08,0-0.25,0.13-0.23c-0.24-0.27-0.13,0.07-0.34-0.08
						c0.24-0.43-0.29-1.05,0.18-1.21c-0.25-0.1-0.11,0.4-0.34,0.01c0.5-0.2-0.17-0.46,0.01-0.86c0.28,0.06,0.2,0.42,0.38,0.03
						c-0.49-0.13-0.02-0.71-0.16-1c-0.36,0.06-0.29-0.62-0.53-1.09c0.12,0.01,0-0.99-0.02-1.48l0.06,0
						c-0.38,0.01-0.45-0.48-0.62-0.81c0.21-0.05,0.32-0.01,0.46,0.15l-0.09-0.33c-0.13-0.04-0.22-0.13-0.32-0.33l0.29,0
						c-0.13-0.44-0.58-0.77-0.6-1.37c-0.25,0.06-0.52,0.66-0.88,0.15c0.12-0.07,0.34-0.17,0.44-0.04c-0.03-0.04-0.17-0.14-0.15-0.25
						l0.3,0.15c0.01-0.28-0.23-0.06-0.28-0.27c0.19-0.06,0.08-0.19,0.24-0.22c0.04,0.04-0.02,0.2,0.08,0.25
						c-0.05-0.24-0.03-0.55,0.08-0.69c-0.1,0.06-0.25,0.09-0.33-0.06c-0.18-0.41,0.16-0.23,0.15-0.51
						c-0.17-0.05-0.15-0.37-0.43-0.26c-0.05-0.12,0.07-0.2,0.12-0.28c-0.21-0.16-0.47-0.99-0.65-0.62l0,0.06l-0.03-0.03l0,0l0,0
						c-0.59-0.56-0.55-1.49-1.04-2.1l0.09-0.05c-0.34-0.33-0.6-0.83-0.95-0.98c-0.07-0.11-0.03-0.37,0.1-0.39
						c-0.28-0.24-0.39-0.2-0.57-0.7c0.35,0.17,0.05-0.19,0.32,0.21c-0.21-0.41-0.16-0.6-0.67-0.82c0.31-0.04,0-0.47-0.22-0.58
						l0.1,0.36c-0.2-0.15-0.34-0.32-0.48-0.5l0.32-0.15c-0.2-0.5-0.63-0.7-1.06-0.83c-0.43-0.14-0.75-0.31-0.9-0.78
						c-0.18,0.03-0.08,0.14,0.02,0.24c0.09,0.11,0.17,0.25,0,0.29c-0.33-0.28-0.54-0.91-0.67-0.99c-0.5-0.49-0.74,0.18-1.32-0.15
						c0.05,0.14,0.01,0.46-0.45,0.43c-0.39-0.19-0.43-0.59-0.12-0.66c0.11,0.02,0.15,0.08,0.14,0.11c0.15,0,0.36,0.02,0.21-0.17
						l-0.09,0.1c-0.18-0.23-0.86-0.26-0.67-0.44c-0.39,0.07-0.18,0.18,0.07,0.27c-0.59-0.22-0.95-0.17-1.59-0.18
						c0.11,0.05,0.2,0.18,0.11,0.19c-0.93-0.05-0.38,0.26-0.96,0.39c-0.36-0.07,0.02-0.46-0.53-0.13c-0.4,0-0.17-0.28-0.04-0.42
						c-0.49,0.4-1.11,0.19-1.43,0.34l0.24-0.23c-0.14,0.14-0.28,0.21-0.42,0.29l0.26,0.13c-0.18,0.05-0.31,0.12-0.36,0.03
						c-0.09,0.22,0.31,0.28,0.1,0.64c-0.27,0-0.53,0.45-0.75,0.25c0.65-0.32-0.27-0.24,0.25-0.6c-0.09,0.09-0.23,0.16-0.38,0.24
						c-0.04-0.01-0.02-0.07,0.01-0.11c-0.73,0.2-0.05,0.49-0.62,0.92c-0.04-0.19-0.35-0.15-0.42-0.05c0.24-0.18,0.3,0.14,0.19,0.4
						c-0.41,0.21-0.27,0.42-0.44,0.57l0.23-0.14c0.06,0.19-0.11,0.33-0.28,0.58c-0.12-0.08,0.12-0.26,0-0.23
						c0,0.45-0.79,0.32-0.9,0.85c-0.23,0.1-0.27-0.19-0.46-0.09c-0.14,0.57-0.57,0.31-0.73,0.89c0.28,0,0.25-0.05,0.23,0.4
						c0.1-0.29,0.25-0.56,0.39-0.84l-0.07,0.67c0.16-0.21,0.23-0.54,0.36-0.65c-0.01,0.34-0.04,0.28,0.19,0.29
						c-0.52,0.08-0.27,0.7-0.69,0.92l-0.49-0.33c-0.57,0.42-0.39,1.13-0.88,1.8l0.21-0.19c0.16,0.21-0.21,0.47-0.25,0.75
						c-0.16-0.11-0.31,0.01-0.47,0.06c0.13,0.05-0.29,0.54,0.05,0.78l-0.38,0.23c-0.36,0.58,0.22,0.92-0.09,1.48
						c-0.13-0.26-0.37-0.04-0.34-0.49c-0.09,0.2-0.19,0.36-0.06,0.42c-0.16,0.08,0.05,0.65-0.19,0.77c0.05,0.11,0.24,0.21,0.14,0.43
						c-0.05,0.01-0.09-0.03-0.09-0.03c0.09,0.03,0,0.39,0.28,0.27c-0.83,0.41-0.49,1.74-1.16,2.14c-0.08,0.46-0.13,1.02-0.21,1.43
						c-0.05-0.04-0.1-0.02-0.06-0.1c-0.31,0.52,0.47,0.47,0.13,1.06c-0.39,0.26-0.09-0.38-0.26-0.2c-0.66-0.04-0.09,0.79-0.53,1.16
						l-0.02-0.11c-0.28,0.3,0.1,0.86-0.04,1.4c0,0-0.05-0.04-0.1-0.02c0.25,0.42,0.28,1.14,0.31,1.68c-0.23-0.19-0.1-0.26-0.37-0.19
						c0.01,0.24,0.42-0.02,0.43,0.46c-0.16,0.14-0.32,0.46-0.6,0.48l0.04-0.45c-0.38,0.19-0.06,0.58-0.15,0.81l-0.15-0.05
						c-0.03,0.69,0.38,0.74,0.3,1.47l0.12-0.07c0.36,0.43-0.24,0.32,0.02,0.74l-0.4,0.1c0.07,0.27,0.32,0.95,0.39,1.42
						c-0.28-0.28-0.43-0.84-0.57-1.2c-0.03,0.26-0.01,0.9,0.18,1.04c-0.04-0.11-0.13-0.25-0.07-0.35c0.3,0.34,0.44,0.76,0.43,1.28
						c-0.76-0.11-0.23,1.36-0.8,1.75c0.31,0.93-0.1,1.86,0.04,2.95c0.57-0.42,0.04,0.32,0.64,0.21c0.06,0.25,0.05,0.34,0.02,0.37
						L57.31,75c-0.16,0.2-0.15-0.23-0.29-0.19c0,0.56-0.25,0.26-0.37,0.64c0.21-0.1,0.33,0.16,0.29,0.49l0.23-0.47
						c0.42,0.74-0.43,0.73-0.01,1.47l-0.22-0.22c0.15,0.39,0.18,1.49,0.75,1.8c-0.06,0.08-0.21,0.2-0.28,0.03
						c0.05,0.48,0.27,0.99,0.45,1.47c0.2,0.48,0.39,0.93,0.32,1.33l-0.16-0.04c0.08,0.17,0.34,0.24,0.25,0.5
						c-0.06,0-0.16-0.04-0.15,0.05c0.07,0.08,0.36,0.41,0.33,0.66l-0.21-0.16c0.06,0.97,0.79,1.29,1.1,2.01
						c-0.43,0.13-0.31,0.88-0.26,1.26l-0.06,0.01c0.3,1.08,1.02,1.65,1.57,2.51c-0.11,0.4,0.12,0.9,0.37,1.44
						c0.24,0.55,0.58,1.1,0.76,1.62c-0.02-0.18,0.3-0.16,0.44-0.03c0.06,0.26,0.61,0.4,0.26,0.59l-0.04-0.08
						c-0.23,0.38,0.19,0.73,0.43,1.06l0.45-0.28c-0.01,0.66,0.55,1.13,1.05,1.52c0.48,0.42,1.04,0.64,1.06,1.12
						c0.28,0.06,0.55,0.25,0.86,0.26l-0.16,0.24c0.63,0.43,0.94,0.68,1.91,0.89l-0.25,0.13c0.55,0.19,0.86-0.55,1.32-0.54l0.09,0.43
						c0.47,0.05,0.94,0.21,1.42,0.17c0.48-0.01,0.98-0.04,1.36-0.39c0,0.06,0.01,0.19-0.13,0.25c0.21-0.06,0.65-0.13,0.99-0.24
						c0.35-0.11,0.53-0.35,0.34-0.56c0.16,0.32,0.88-0.39,1.13-0.81l0.1,0.27c0.11-0.54,0.06-0.62,0.42-1.03
						c0.12-0.05,0.23,0.1,0.05,0.15c0.43-0.16,0.1-0.39,0.55-0.65l-0.01,0.27c0.32-0.3,0.23-0.34,0.25-0.66
						c0.1-0.27,0.63-0.52,0.84-0.43c-0.08-0.15-0.1-0.46,0.11-0.61c0.1,0.03,0.09,0.14,0.08,0.2c0.59-0.46,0.41-1.02,0.88-1.28
						c0.08,0.04,0.14,0.04,0.18,0.02c-0.29,0.49-0.61,0.83-0.6,0.79c0.2,0.16,0.53-0.2,0.59,0.31c0.1-0.41,0.06-1.2,0.41-1.51
						c0.03-0.01,0.06-0.01,0.11,0l0,0.05c0.08-0.08,0.11-0.17,0.12-0.26c0.11-0.1,0.19-0.16,0.27-0.28
						c0.22,0.06,0.35-0.41,0.46-0.61c-0.26-0.12-0.08-0.36-0.41-0.22c0.03-0.02,0.01,0.05-0.05,0.19c-0.01,0.03-0.02,0.07-0.02,0.1
						l-0.01-0.03c-0.07,0.13-0.13,0.32-0.25,0.5c-0.02-0.22-0.05-0.45,0.2-0.59c-0.11-0.19-0.21-0.39-0.26-0.49
						c0.49-0.09,0.95-0.53,1.21-0.5c0.15-0.7,0.56-1.55,0.24-2.14c0.01-0.2,0.22-0.15,0.32-0.19c0.01,0.13-0.04,0.25,0,0.33
						c0.02-0.41,0.34-1.11,0.02-1.32c0.32-0.41,0.23,0.37,0.4-0.28l0.08,0.12c0.51-0.53,0.43-1.13,0.37-1.72
						c-0.06-0.6-0.07-1.18,0.44-1.8c-0.07,0.09-0.1,0.13-0.16,0.14c0.71-1.55,0.4-3.39,1.12-4.93c0.16-0.45-0.07-0.53-0.21-0.83
						l0.31-0.07l-0.29-0.52c-0.18-0.7,0.83-1.12,0.42-2.03l-0.21,0.1c0.06-0.31-0.05-0.99,0.18-0.93c-0.04-0.03-0.21-0.11-0.1-0.23
						l0.16,0l-0.25-0.78c0.13-0.59,0.62,0.11,0.68-0.76c-0.05-0.33-0.44-0.93-0.55-0.8c-0.01,0.13-0.11,0.33-0.26,0.34l-0.08-0.29
						c-0.46-0.06-0.94-0.27-1.28,0.43l0.27,0.49l-0.23,0.15l0-0.41c-0.22,0.23-0.03,0.38,0.09,0.55c-0.12,0.04-0.21,0.1-0.25,0.2
						l0.43,0.49c-0.18,0.05-0.36-0.23-0.46,0.09c0.2,0.23,0.41-0.2,0.54,0.18c-0.22,0.23-0.38,0.15-0.22,0.43
						c-0.12,0.03-0.19-0.03-0.24-0.14c0.13,0.25,0.01,0.65,0.25,0.79c-0.28,0.23,0.01,0.83-0.43,0.77c0.1,0.08,0.31,0.46,0.32,0.68
						c-0.48-0.46-0.1,0.84-0.67,0.67c0.44,0.35,0.08,1.1,0.28,1.67c-0.03-0.04-0.1-0.1-0.07-0.15c-0.08,0.29-0.22,0.36-0.35,0.54
						c0.38,0.1,0.39,0.57,0.58,0.86c-0.44,0.3-0.42-0.3-0.79-0.24c0.32,0.03,0.2,0.68,0.49,0.61c-0.28,0.24-0.15,0.22-0.5,0.31
						c0.47,0.14,0.04,0.27,0.29,0.56c-0.31,0.36-0.47,0.01-0.42,0.48C79.52,80.25,79.44,79.83,79.44,79.83z M76.57,89.96
						L76.57,89.96c0.04-0.08,0.07-0.15,0.1-0.2C76.64,89.81,76.62,89.87,76.57,89.96z M76.1,90.72c0.07-0.08,0.14-0.2,0.21-0.32
						c0.1,0.03,0.16,0.11,0.11,0.18C76.4,90.5,76.24,90.65,76.1,90.72z M78.78,90.07c-0.04,0.16-0.11,0.17-0.17,0.16
						c0.03-0.07,0.06-0.15,0.09-0.25l-0.02-0.03C78.73,89.99,78.76,90.03,78.78,90.07z"/>
					<path class="st1" d="M78.59,89.65c0-0.02,0-0.04,0.01-0.06c-0.04,0.02-0.07,0.03-0.1,0.05l0.05,0.09L78.59,89.65z"/>
					<path class="st1" d="M78.94,51.98l0-0.02c0,0.02-0.01,0.04-0.02,0.05C78.93,52,78.94,51.99,78.94,51.98z"/>
					<polygon class="st1" points="66.73,92.96 66.69,93.02 66.78,93.01 					"/>
					<path class="st1" d="M79.76,57.07c-0.02,0.02-0.04,0.04-0.05,0.08C79.73,57.14,79.74,57.11,79.76,57.07z"/>
					<path class="st1" d="M80.23,59.17l-0.03,0.32C80.22,59.35,80.23,59.25,80.23,59.17z"/>
					<path class="st1" d="M80.43,60.83c0.05,0.01,0.09,0.01,0.12,0.01l0,0L80.43,60.83z"/>
					<path class="st1" d="M65.71,47.65c-0.01,0.02-0.02,0.03-0.03,0.05C65.62,47.84,65.67,47.76,65.71,47.65z"/>
					<path class="st1" d="M72.03,45.34c-0.09,0.02-0.18,0.05-0.27,0.05C71.88,45.45,71.97,45.48,72.03,45.34z"/>
					<polygon class="st1" points="61.82,54.97 61.82,54.97 61.8,55.02 					"/>
					<path class="st1" d="M71.44,45.28c0.11,0.09,0.21,0.12,0.32,0.11C71.67,45.34,71.55,45.27,71.44,45.28z"/>
					<path class="st1" d="M81.07,67.97l-0.01,0.08c0.02,0,0.03,0,0.05,0.01L81.07,67.97z"/>
					<path class="st1" d="M81.11,68.06l0.04,0.09C81.14,68.1,81.14,68.07,81.11,68.06z"/>
					<path class="st1" d="M81.22,68.33l-0.08-0.18C81.15,68.21,81.14,68.29,81.22,68.33z"/>
					<path class="st1" d="M81.07,65.77l-0.1-0.02C80.99,65.77,81.03,65.77,81.07,65.77z"/>
					<path class="st1" d="M81,65.11c-0.01,0.16-0.19,0.42-0.11,0.63l0.08,0.01C80.81,65.66,81.18,65.24,81,65.11z"/>
					<path class="st1" d="M81.91,62.16c0.01,0.19,0,0.39,0,0.58c0.1-0.11,0.22-0.27,0.28-0.01C82.42,61.96,81.97,62.91,81.91,62.16z
						"/>
					<path class="st1" d="M81.76,60.38c0.1,0.3,0.15-0.03,0.22-0.03C81.85,60.17,81.81,60.13,81.76,60.38z"/>
					<path class="st1" d="M77.12,48.34l0.23-0.12C77.17,48.04,77.27,48.27,77.12,48.34z"/>
					<polygon class="st1" points="74.55,47.35 74.59,47.62 74.83,47.53 					"/>
					<polygon class="st1" points="74.61,45.01 74.73,45.05 74.32,44.86 					"/>
					<path class="st1" d="M58.72,56.56l0.32,0.02C59.04,56.4,58.71,56.27,58.72,56.56z"/>
					<path class="st1" d="M57.44,65.86c-0.16,0.09-0.28,0.35-0.14,0.52C57.33,66.17,57.47,65.97,57.44,65.86z"/>
					<polygon class="st1" points="63.24,93.11 63.04,93.02 63.34,93.26 					"/>
				</g>
			</g>
		</g>
	</g>
</g>
</svg>
