<?xml version="1.0" encoding="utf-8"?>
<!-- Generator: Adobe Illustrator 24.2.1, SVG Export Plug-In . SVG Version: 6.00 Build 0)  -->
<svg version="1.1" id="Layer_1" xmlns="http://www.w3.org/2000/svg" xmlns:xlink="http://www.w3.org/1999/xlink" x="0px" y="0px"
	 viewBox="0 0 140 140" style="enable-background:new 0 0 140 140;" xml:space="preserve">
<style type="text/css">
	.st0{fill:#FFFFFF;}
	.st1{fill:#202020;}
</style>
<g>
	<ellipse transform="matrix(0.9964 -0.0853 0.0853 0.9964 -5.6969 6.6516)" class="st0" cx="75" cy="70" rx="50.5" ry="25.5"/>
	<g>
		<g>
			<g>
				<g>
					<path class="st1" d="M124.65,65.75c0.1,0.12,0.29,0.03,0.2-0.31l-0.36-0.2L124.65,65.75z"/>
					<path class="st1" d="M124.84,63.35c-0.25-0.37-0.7-0.71-0.89-0.37c0.44,0.28,0.33,0.41,0.79,0.73c0.12,0.33,0.04,0.62-0.1,0.58
						c0.13,0.1,0.02,0.54,0.25,0.69c0.22-0.49,0.07-1.07-0.27-1.6C124.66,63.24,124.77,63.34,124.84,63.35z"/>
					<path class="st1" d="M96.96,45.12l0.21,0.08C97.12,45.16,97.05,45.14,96.96,45.12z"/>
					<path class="st1" d="M75.37,43.76c0.16-0.02,0.23-0.05,0.24-0.08C75.46,43.71,75.33,43.73,75.37,43.76z"/>
					<path class="st1" d="M71.64,43.69c0.08,0,0.15,0,0.22,0C71.78,43.67,71.69,43.66,71.64,43.69z"/>
					<path class="st1" d="M96.96,45.12l-0.55-0.2C96.35,45.02,96.69,45.05,96.96,45.12z"/>
					<path class="st1" d="M122.16,59.49c0.08,0.09,0.16,0.15,0.24,0.2l-0.19-0.21C122.2,59.48,122.18,59.48,122.16,59.49z"/>
					<path class="st1" d="M106.31,47.22l0.17,0.06c0.06-0.02,0.12-0.05,0.18-0.08L106.31,47.22z"/>
					<path class="st1" d="M113.16,50.01c-0.14-0.09-0.32,0.13-0.43,0.21c0.14-0.06,0.27-0.05,0.41,0
						C113.16,50.17,113.17,50.11,113.16,50.01z"/>
					<path class="st1" d="M122.13,57.52l0.16,0.14C122.24,57.62,122.18,57.56,122.13,57.52z"/>
					<path class="st1" d="M101.25,45.69c0-0.04-0.02-0.09-0.04-0.11C101.2,45.61,101.22,45.65,101.25,45.69z"/>
					<path class="st1" d="M122.33,73.2c0.02,0.01,0.03,0.01,0.04,0.02C122.36,73.18,122.35,73.16,122.33,73.2z"/>
					<path class="st1" d="M125.39,65.69l0.02,0.12c0.05,0.01,0.11,0.02,0.16,0.01L125.39,65.69z"/>
					<path class="st1" d="M64.84,44.21c0.01,0,0.02,0,0.03,0C65.04,44.15,64.94,44.17,64.84,44.21z"/>
					<path class="st1" d="M26.86,82.62c-0.26-0.72,1,0.73,0.53-0.3C27.37,82.47,26.42,81.79,26.86,82.62z"/>
					<path class="st1" d="M122.09,59.32l-0.16-0.23C122,59.2,122.05,59.27,122.09,59.32z"/>
					<path class="st1" d="M27.39,82.32L27.39,82.32l-0.05-0.1C27.37,82.26,27.38,82.28,27.39,82.32z"/>
					<path class="st1" d="M49.65,48.25c0.05,0.04,0.12,0.05,0.19,0.06C49.82,48.29,49.78,48.26,49.65,48.25z"/>
					<path class="st1" d="M61.01,45.51l-0.29,0.02C60.84,45.53,60.93,45.52,61.01,45.51z"/>
					<path class="st1" d="M44.15,50.88c-0.15,0.05-0.22,0.03-0.4,0.16c0.02,0,0.05,0.01,0.07,0C43.88,50.97,43.96,50.91,44.15,50.88
						z"/>
					<path class="st1" d="M38.52,53.77c0.04,0,0.09-0.01,0.13-0.01c0.05-0.04,0.11-0.08,0.17-0.12L38.52,53.77z"/>
					<path class="st1" d="M109.03,85.33c0.16,0.01,0.27,0.04,0.37,0.09C109.22,85.29,109.97,84.8,109.03,85.33z"/>
					<path class="st1" d="M122.29,59.4c-0.08,0.01-0.14-0.01-0.2-0.08c0.04,0.05,0.08,0.1,0.12,0.16
						C122.26,59.46,122.3,59.45,122.29,59.4z"/>
					<path class="st1" d="M44.83,53l-0.9,0.37C44.19,53.28,44.52,53.15,44.83,53z"/>
					<path class="st1" d="M66.28,94.59l0.23-0.03C66.42,94.56,66.34,94.56,66.28,94.59z"/>
					<path class="st1" d="M41.38,54.71c-0.2,0-0.39,0.03-0.57,0.09c-0.02,0.04-0.06,0.08-0.06,0.12L41.38,54.71z"/>
					<path class="st1" d="M109.4,85.42L109.4,85.42L109.4,85.42z"/>
					<path class="st1" d="M114.4,81.44c-0.74,0.53-0.14,0.54-0.17,0.83c-0.84,0.72-0.57,0.07-0.99,0.13
						c-0.49,0.48-0.77,1.03-1.2,1.3c-0.06-0.03-0.16,0-0.1-0.12c-0.45,0.65-1.83,1.14-2.4,1.87c-0.07,0-0.11-0.01-0.14-0.03
						c0.21,0.1,0.32,0.25,0.36,0.38c-0.37,0.21-0.58,0.58-0.83,0.44c0.23-0.12,0.2-0.21,0.27-0.34l-0.34,0.3
						c-0.51-0.12,0.47-0.39,0.35-0.62c-0.69,0.52-1.45,1.22-2.09,1.42c-0.27-0.24,1.32-0.79,0.4-0.67c0.32-0.11,0.65-0.22,0.96-0.34
						c-0.93-0.11,0.55-0.26-0.33-0.43c-1.23,0.5-1.23,0.84-2.48,1.3c-0.19,0.3,0.21,0.21,0.02,0.51c-1.58,1.11-1.7-0.18-2.79,0.78
						c-0.24,0.35-0.21,0.8-1.22,0.95l0.18-0.48c-1.22,0.42-0.48,0.8-1.85,1.01c0.18-0.22,0.91-0.46,0.71-0.44
						c-0.93,0.02-0.51,0.41-1.14,0.64l-0.24-0.27c-1.27,0.51-2.64,1.21-4.09,1.69c0.05-0.12,0.27-0.3-0.1-0.3
						c-1.79,0.71-3.98,1.02-5.82,1.23l-0.63,0.43c-0.16,0.03-0.33-0.07-0.16-0.16c-0.73,0.04,0,0.19-0.32,0.37
						c-0.4,0.1-0.57-0.06-0.33-0.2c-1.19,0.51-3.49,1.19-4.87,1.07l0.25-0.13c-1.05,0.04-1.09,0.77-2.09,0.62l0.18-0.07
						c-2.27,0.19-4.76,0.65-6.53,0.32c-0.31,0.45-2.26-0.08-2.38,0.52c-1.31-0.24-0.94-0.37-2.77-0.52
						c-0.49-0.02-0.72,0.37-1.33,0.43l-0.01-0.31l-0.82,0.32l-0.43-0.37l-0.57,0.06c0.22,0.03,0.48,0.15,0.44,0.24
						c-0.89,0.11-2.15-0.28-2.16-0.44l-2.1,0.15c0.05-0.12,0.41-0.14,0.69-0.21c-1.13,0.25-0.18-0.33-1.22-0.11
						c0.13,0.08-0.09,0.18-0.11,0.24c-0.49-0.23-1.65-0.32-2.51-0.33l0.18-0.19c-1.53-0.22-3.24-0.26-4.95-0.55
						c0.6,0.2,0.4,0.54-0.11,0.49l-0.15-0.36c-0.36,0.14,0.51,0.21-0.2,0.34c-0.64-0.15-0.37-0.44,0.02-0.48l-0.8-0.02
						c-0.03-0.1,0.16-0.12,0.23-0.24c-0.36,0.15-1.27-0.57-1.79-0.32l-0.02-0.1c-1.69-0.35-2.48-0.42-3.84-0.76
						c-0.1,0.26-0.61,0.06-1.08,0.17c-0.97-0.38-2.01-0.91-3.19-1.3c-0.87-0.15-0.32,0.14-0.75,0.17c0.02-0.26-1.14-0.68-0.48-0.63
						c-1.41-0.49-1.79-0.63-3.59-1.22c0.14,0.18,0.33,0.32,0.19,0.35c-0.33-0.11-0.66-0.43-0.56-0.52l0.09,0.01
						c-0.52-0.13-1.04-0.39-1.53-0.71c-0.5-0.3-0.98-0.67-1.43-1.04c-0.46-0.36-0.89-0.73-1.31-1.04c-0.43-0.3-0.83-0.55-1.24-0.69
						l0.09,0.03c-0.52-0.26-1.03-0.53-1.53-0.83c-0.58-0.54,0.49,0.15,0.14-0.34c-1.68-0.88-2.09-1.99-3.22-2.97
						c-0.04-0.34-0.19-0.71-0.41-1.11c-0.23-0.39-0.5-0.82-0.77-1.27c-0.29-0.44-0.5-0.93-0.71-1.38c-0.15-0.47-0.28-0.91-0.26-1.3
						l-0.15,0.13c-0.26-0.33-0.01-0.48-0.03-0.76c-0.13,0.07-0.06,0.44-0.21,0.23c-0.49-1.59-0.47-3.36-0.03-5.02
						c0.43-1.67,1.24-3.22,2.18-4.64c0.35-0.52,0.26-0.79,0.23-1.08c-0.03-0.29,0-0.6,0.67-1.12l-0.01,0.56
						c1.22-2.34,3.51-4.01,5.35-5.85c-0.08,0.16-0.02,0.24-0.22,0.39c0.58-0.15,1.61-1.23,1.52-1.38c0.35-0.22,0.18,0.09,0.44,0.03
						c0.52-0.21,0.97-1.05,1.35-1c0.06,0.01-0.09,0.15-0.16,0.22c0.24-0.29,1.43-0.88,0.99-0.93c0.92-0.38,1.55-1.08,2.34-1.3
						c0.3-0.52,1.56-0.67,1.51-1.12c0.14,0.43,1.71-0.45,2.2-0.89c-0.13,0.21,0.55-0.1,0.41,0.18c0.64-0.31,1.21-0.64,1.01-0.8
						c1.41-0.02,2.3-1.41,3.24-1.03c1.91-0.96,3.74-1.75,5.56-2.38c0.06,0.44-2.03,0.65-1.8,1.09c1.67-0.72,2.59-1.39,4.37-1.73
						c0.47-0.06-0.21,0.26-0.34,0.37c1.71-0.65,3.43-0.8,4.97-1.36c0,0.04-0.16,0.12-0.31,0.19c0.31-0.08,0.74-0.08,0.67-0.28
						l-0.29,0.12c-0.56-0.19,1.13-0.87,1.16-1.02c-0.43,0.67,1.61-0.14,0.89,0.75c0.2-0.07,0.44-0.22,0.37-0.34
						c0.32-0.02,0.43,0.05,0.14,0.26c1.11-0.31,0.67-0.45,1.7-0.61c0.01,0.1-0.19,0.17-0.28,0.3c0.49-0.27,0.99-0.54,1.87-0.59
						c-0.04,0.07,0.07,0.13-0.19,0.17c1.49-0.22,2.49-0.85,4.17-0.81c-0.45,0.48,0.58,0.09,0.7,0.45c0.29-0.07,0.58-0.13,0.88-0.19
						l-0.37-0.15c0.78-0.05,1.45-0.37,2.13-0.3l-0.57,0.2c0.49-0.06,0.97-0.12,1.46-0.16l-0.84-0.1c0.78-0.24-0.11-0.47,0.94-0.42
						c-0.21,0.05,0.79-0.03,1.2,0.17l0,0c0.38-0.14,0.78-0.28,1.36-0.2c0.15,0.12-0.11,0.42-0.01,0.49
						c0.37-0.31,1.83-0.14,2.31-0.46c-0.16,0.08-0.17,0.27-0.12,0.31l0.32-0.25c0.36,0.08,0.42,0.12,0.36,0.28
						c1.09,0.05-0.34-0.48,0.95-0.27c-0.1,0.02-0.05,0.06-0.27,0.1c1.3,0.11,2.52-0.11,3.71,0.07c0.33,0.39-1.05,0.04-0.66,0.38
						c1.71,0.01,3.58-0.24,5.23,0.02l-0.3-0.08c0.28-0.5,1.21,0.4,2.07,0.24c-0.21,0.02-0.3,0.26-0.24,0.21
						c1.12,0.23,2.32,0.16,4.06,0.3l-0.23,0.1c0.64,0.22,1.73,0.38,2.43,0.59c0.24-0.09,0.64,0.01,0.43-0.23
						c2.01,1.23,4.27,0.56,5.99,1.79c-0.23-0.07-0.57-0.05-0.39,0.01c0.55,0.11,1.1,0.25,1.64,0.39c-0.05-0.26-0.16-0.2-0.45-0.49
						c0.25-0.06,0.73-0.01,1.13,0.13c-0.77-0.1-0.11,0.35,0.15,0.58c-0.03-0.08,0.1-0.12,0.1-0.2c0.69,0.69,0.3-0.39,1.34,0.3
						l-0.1,0.09c0.44,0.1,0.9,0.1,1.33,0.33c0.08,0.33-0.49-0.07-0.6,0.12c0.63,0.25,1.44,0.06,1.91,0.55
						c-0.3-0.05-0.68-0.21-0.98-0.26c0.49,0.56,0.6,0.5,1.03,0.76l-0.04-0.03l0.98,0.62l-0.23-0.2c1.08-0.27,1.6,0.66,2.83,0.83
						c-1.18-0.19-0.28,0.12-0.51,0.34c0.21,0.22,0.54,0.53,0.39,0.54c0.59,0.06,0.67,0.61,1.49,0.73c-0.03,0.1,0.47,0.32,0.24,0.46
						c0.62,0.32-0.04-0.23,0.07-0.3c1.1,0.33,1.81,1.77,3.23,2.46c1.1,0.77,1.5,0.73,2.46,1.58c0.15,0.43-0.49-0.04-0.49-0.04
						c0.3,0.63,0.67,0.98,1.11,1.45c-0.14-0.06-0.13,0.09-0.11,0.31c0.3,0.41,0.51,0.07,0.73,0.73c-0.15-0.04-0.36-0.08-0.6-0.22
						c0.39,0.44,0.84,0.86,1.19,1.38c-0.08,0.22-0.38-0.23-0.6-0.35c0.39,0.56,0.9,1.52,1.2,1.64c-0.02-0.15-0.03-0.31-0.06-0.46
						c0.1,0.23-0.16,0.2-0.28,0.05c-0.44-0.45-0.27-0.81-0.19-0.89l0.24,0.38c0.34-0.67-0.87-1.58-1.35-2.3l0.56,0.08l-0.81-0.57
						c-0.02-0.22,0.09-0.48,0.39-0.14c-0.21-0.67-0.47-0.37-0.64-0.96c-0.01-0.07,0.02-0.06,0.07-0.03l-0.5-0.42
						c0.15,0.04,0.15-0.28,0.36,0.07c-0.59-1.05-1.49-1.18-1.59-1.69l0.09,0.05c-1.27-1-0.32,0.1-1.44-0.42l-0.14-1.09l-0.31,0.14
						c-0.12-0.12-0.36-0.34-0.24-0.39c-0.62-0.2,0,0.17-0.4,0.11c-0.46-0.71-1.85-1.16-1.74-1.65c-0.36,0.04,0.54,0.57-0.26,0.24
						c0.08-0.59-0.87-0.44-1.38-1.01c0.33-0.12,0.85,0.35,0.34-0.22c-0.6,0.16-1.19-0.78-1.78-0.99c-0.18,0.29-1.26-0.46-2.25-0.79
						c0.11-0.08-1.69-0.96-2.56-1.4l0.05-0.05c-0.3,0.28-1.2-0.14-1.91-0.29c0.1-0.2,0.25-0.24,0.65-0.21l-0.64-0.22
						c-0.19,0.06-0.41,0.05-0.84-0.05l0.25-0.21c-0.87-0.26-1.83-0.24-2.9-0.72c-0.13,0.23,0.69,0.92-0.52,0.78
						c-0.01-0.15,0.01-0.39,0.33-0.36c-0.11-0.01-0.39,0.02-0.58-0.1l0.53-0.1c-0.48-0.23-0.32,0.12-0.72-0.01
						c0.06-0.19-0.27-0.22-0.17-0.35c0.11,0.01,0.33,0.17,0.51,0.14c-0.45-0.15-0.98-0.42-1.13-0.6c0.01,0.12-0.06,0.26-0.41,0.2
						c-0.88-0.19-0.25-0.3-0.74-0.52c-0.24,0.09-0.77-0.19-0.85,0.1c-0.26-0.05-0.28-0.2-0.36-0.3c-0.48,0.04-2.14-0.39-1.69,0.02
						l0.11,0.04c-0.02,0-0.05,0-0.08,0l0,0l0,0c-0.78,0.01-1.54-0.16-2.31-0.35c-0.77-0.17-1.54-0.36-2.3-0.41l0.01-0.1
						c-0.91,0.01-2-0.16-2.66-0.01c-0.26-0.02-0.61-0.23-0.49-0.34c-0.69,0.02-0.78,0.12-1.76-0.12c0.7-0.12-0.23-0.17,0.72-0.07
						c-0.89-0.16-1.08-0.31-2.06-0.11c0.34-0.23-0.66-0.36-1.09-0.3l0.62,0.21c-0.48,0-0.9-0.02-1.32-0.06l0.24-0.33
						c-1.84-0.47-3.32,0.62-4.72-0.05c-0.48,0.24,1,0.15,0.57,0.43c-0.84-0.04-1.73-0.49-2-0.49c-1.17-0.16-1.07,0.52-2.28,0.45
						c0.16,0.11,0.32,0.42-0.57,0.57c-0.84-0.01-1.06-0.43-0.54-0.57c0.2-0.02,0.3,0.01,0.3,0.05c0.27-0.06,0.63-0.12,0.28-0.24
						l-0.1,0.12c-0.43-0.11-1.59,0-1.33-0.22c-0.63,0.16-0.26,0.21,0.22,0.24c-1.09-0.09-1.69,0.1-2.81,0.11
						c0.18,0.05,0.36,0.17,0.18,0.19c-1.64,0.01-0.7,0.29-1.79,0.45c-0.64-0.11,0.18-0.46-0.92-0.17c-0.69-0.04-0.18-0.29,0.08-0.42
						c-0.98,0.36-1.91,0.08-2.5,0.13l0.52-0.18c-0.31,0.1-0.57,0.14-0.84,0.18l0.34,0.19c-0.32,0.01-0.58,0.05-0.59-0.05
						c-0.3,0.2,0.3,0.35-0.3,0.66c-0.43-0.06-1.24,0.32-1.43,0.04c1.32-0.11-0.2-0.3,0.9-0.52c-0.21,0.07-0.47,0.1-0.79,0.12
						c-0.05-0.03,0.03-0.07,0.12-0.11c-1.3-0.06-0.52,0.45-1.81,0.67c0.13-0.2-0.36-0.28-0.57-0.2c0.52-0.09,0.3,0.24-0.15,0.47
						c-0.85,0.03-0.87,0.28-1.31,0.36l0.5-0.04c-0.13,0.21-0.55,0.27-1.11,0.44c-0.08-0.13,0.5-0.2,0.28-0.22
						c-0.57,0.42-1.5,0.01-2.34,0.41c-0.44-0.02-0.12-0.32-0.5-0.31c-0.93,0.47-1.13,0.04-2.12,0.49c0.36,0.15,0.4,0.08-0.27,0.5
						l1.66-0.61l-1,0.62c0.51-0.13,1.04-0.43,1.36-0.47c-0.47,0.32-0.43,0.25-0.14,0.38c-0.79-0.16-1.34,0.55-2.2,0.55l-0.13-0.58
						c-1.29,0.09-2.07,0.91-3.67,1.28l0.53-0.06c-0.14,0.29-0.95,0.33-1.42,0.61c-0.02-0.2-0.35-0.16-0.61-0.2
						c0.08,0.13-1.14,0.38-1.14,0.81l-0.77,0.02c-1.28,0.37-1.2,1.07-2.39,1.5c0.27-0.35-0.32-0.25,0.41-0.72
						c-0.39,0.16-0.76,0.28-0.71,0.41c-0.28-0.02-0.97,0.72-1.4,0.71c-0.13,0.15-0.09,0.37-0.53,0.55
						c-0.06-0.01-0.04-0.09-0.04-0.09c0.04,0.09-0.62,0.43-0.15,0.45c-1.45,0.01-3.22,1.68-4.46,1.81
						c-0.77,0.53-1.69,1.17-2.38,1.65c0.01-0.08-0.05-0.08,0.09-0.15c-1.08,0.48-0.27,0.87-1.47,1.45c-0.74,0.13,0.47-0.54,0.06-0.4
						c-0.54-0.43-1.24,1.02-2.17,1.28l0.15-0.16c-0.67,0.28-1.15,1.24-1.98,1.99c0,0,0-0.08-0.06-0.08
						c-0.34,0.76-1.28,1.86-1.89,2.74c0.02-0.42,0.22-0.46-0.11-0.47c-0.29,0.39,0.4,0.17-0.16,0.94c-0.32,0.14-0.81,0.63-1.1,0.54
						l0.55-0.74c-0.57,0.15-0.71,0.96-1.05,1.31l-0.09-0.14c-0.75,1.22-0.43,1.44-1.18,2.75l0.18-0.08
						c-0.02,0.9-0.49,0.53-0.58,1.39c-0.16,0.02-0.31,0.05-0.46,0.08c-0.05,0.28-0.13,0.76-0.21,1.3c-0.04,0.55-0.13,1.13-0.17,1.61
						c-0.19-0.59-0.04-1.77,0.07-2.5c-0.23,0.51-0.52,1.82-0.4,2.14c0.02-0.22-0.01-0.52,0.11-0.72c0.12,0.73,0.09,1.6,0,2.67
						c-0.35-0.13-0.53,0.58-0.49,1.43c-0.04,0.85,0.14,1.8-0.1,2.27c0.65,1.88,1.02,3.86,2.35,5.78c0.04-1,0.39,0.54,0.81,0.08
						c0.32,0.41,0.45,0.55,0.45,0.62c0.23,0.48,0.45,0.98,0.74,1.44c0.13,0.4-0.44-0.28-0.51-0.15c0.76,0.88,0.14,0.53,0.55,1.22
						c0.04-0.26,0.5,0.08,0.93,0.59c-0.16-0.28-0.33-0.56-0.47-0.84c1.38,0.87,0.65,1.36,2.12,2.15l-0.52-0.18
						c0.69,0.49,2.47,1.87,3.41,1.88c0.08,0.14,0.16,0.39-0.17,0.22c1.63,1.14,4.04,1.69,5.28,2.58l-0.2,0.07
						c0.35,0.12,0.69-0.01,1.05,0.31c-0.05,0.05-0.19,0.08-0.04,0.15c0.2,0.02,0.98,0.15,1.4,0.39l-0.45,0.01
						c1.7,0.87,2.87,0.63,4.39,1.01c-0.14,0.41,1.24,1,1.95,1.25l-0.04,0.05c2.12,0.64,3.72,0.54,5.73,0.76
						c1.15,0.7,4.16,0.92,6.14,1.37c-0.3-0.11,0.09-0.34,0.45-0.34c0.46,0.15,1.33-0.18,1.22,0.22l-0.17-0.02
						c0.32,0.42,1.3,0.41,2.06,0.47l0.16-0.52c1.94,0.91,5.2-0.06,6.27,0.61c0.48-0.13,1.07-0.13,1.55-0.27l-0.02,0.28
						c1.33,0.05,2,0.07,3.64-0.08l-0.33,0.22c0.93-0.02,1.12-0.87,1.97-0.95l0.28,0.4c1.61-0.11,3.28,0.09,4.82-0.47
						c-0.02,0.06-0.05,0.19-0.31,0.24c0.76-0.08,2.96-0.08,2.6-0.63c0.07,0.37,1.66-0.2,2.48-0.52l-0.09,0.3
						c0.67-0.48,0.67-0.58,1.66-0.85c0.25-0.01,0.25,0.18-0.08,0.17c0.82,0,0.57-0.37,1.56-0.42l-0.32,0.25
						c0.82-0.15,0.74-0.23,1.14-0.52c0.49-0.2,1.55-0.27,1.73-0.05c0.08-0.18,0.47-0.48,0.96-0.52c0.09,0.08-0.07,0.18-0.15,0.22
						c1.4-0.15,1.92-0.82,2.92-0.8c0.04,0.08,0.12,0.11,0.2,0.12c-1.07,0.29-1.94,0.49-1.86,0.45c0.06,0.25,0.94,0.07,0.34,0.59
						c0.66-0.36,1.73-1.09,2.6-1.23c0.05,0.01,0.09,0.02,0.14,0.05l-0.08,0.05c0.2-0.03,0.37-0.1,0.52-0.19
						c0.28-0.04,0.46-0.06,0.72-0.14c0.16,0.17,1.02-0.21,1.45-0.33c-0.12-0.26,0.45-0.39-0.15-0.44c0.07,0-0.07,0.06-0.35,0.16
						c-0.06,0.03-0.14,0.06-0.17,0.09l0.02-0.03c-0.28,0.09-0.64,0.22-1.05,0.36c0.29-0.24,0.61-0.47,1.12-0.47
						c0.16-0.24,0.34-0.49,0.45-0.62c0.7,0.19,1.88-0.02,2.12,0.16c1.23-0.6,2.98-1.24,3.56-2.07c0.33-0.21,0.47-0.03,0.64-0.01
						c-0.19,0.14-0.43,0.23-0.52,0.35c0.67-0.41,2.08-0.98,2.09-1.39c0.96-0.26-0.35,0.54,0.84-0.08l-0.11,0.18
						c2.66-0.65,3.38-2.77,6.23-3.69c-0.2,0.07-0.29,0.11-0.36,0.08c3.03-1.53,5.4-4.24,7.98-6.37c0.69-0.66,0.61-0.87,0.8-1.45
						l0.36,0.02l0.31-1c0.26-0.66,0.78-1.04,1.22-1.55c0.23-0.25,0.46-0.52,0.65-0.84c0.18-0.33,0.32-0.72,0.39-1.17l-0.28,0.13
						c0.31-0.57,0.6-1.93,0.78-1.77c-0.02-0.08-0.15-0.26,0.02-0.48l0.16,0.02l0.07-0.8l-0.01-0.8c0.29-1.2,0.64,0.29,0.81-1.55
						c-0.02-0.71-0.51-1.93-0.59-1.66c0,0.27-0.07,0.69-0.23,0.71l-0.1-0.59c-0.47-0.09-0.96-0.43-1.24,0.9
						c0.12,0.3,0.17,0.62,0.25,0.93l-0.24,0.28l0.04-0.77c-0.24,0.43-0.07,0.71,0.04,1.04c-0.13,0.06-0.24,0.18-0.31,0.35
						c0.09,0.32,0.2,0.64,0.28,0.98c-0.21,0.07-0.25-0.47-0.5,0.1c0.09,0.46,0.5-0.31,0.45,0.42c-0.33,0.39-0.43,0.21-0.43,0.77
						c-0.14,0.03-0.17-0.1-0.16-0.31c-0.02,0.48-0.34,1.18-0.22,1.5c-0.42,0.33-0.62,1.49-1.01,1.24c0.01,0.17-0.08,0.91-0.32,1.28
						c-0.01-0.95-0.92,1.37-1.29,0.84c0.04,0.76-1.13,1.82-1.69,2.75c0.01-0.07,0.04-0.21,0.12-0.26c-0.44,0.41-0.67,0.43-0.99,0.64
						c0.22,0.33-0.4,1.04-0.62,1.57c-0.8,0.21,0.03-0.64-0.39-0.76c0.26,0.22-0.75,1.08-0.39,1.11c-0.58,0.19-0.45,0.23-0.88,0.17
						c0.24,0.45-0.36,0.39-0.55,0.92c-0.8,0.31-0.44-0.23-1.07,0.43C113.86,82.05,114.41,81.45,114.4,81.44z M95.26,91.34
						L95.26,91.34c0.18-0.06,0.33-0.11,0.43-0.15C95.59,91.22,95.47,91.27,95.26,91.34z M93.48,91.84c0.22-0.05,0.49-0.11,0.77-0.19
						c0.09,0.07,0.05,0.19-0.13,0.24C94.21,91.79,93.77,91.85,93.48,91.84z M97.81,92.61c-0.27,0.13-0.38,0.11-0.44,0.06
						c0.13-0.05,0.28-0.11,0.49-0.19c0.01-0.01,0.02-0.03,0.02-0.04C97.87,92.5,97.85,92.55,97.81,92.61z"/>
					<path class="st1" d="M98.21,92.09c0.04-0.02,0.06-0.04,0.11-0.06c-0.07-0.01-0.13-0.01-0.19-0.01
						c-0.02,0.04-0.05,0.08-0.07,0.12C98.11,92.13,98.16,92.11,98.21,92.09z"/>
					<path class="st1" d="M97.21,45.21l-0.04-0.01c0.03,0.02,0.06,0.03,0.07,0.06C97.23,45.23,97.23,45.22,97.21,45.21z"/>
					<polygon class="st1" points="68.33,94.48 68.33,94.55 68.49,94.49 					"/>
					<path class="st1" d="M106.83,48.74c0.01,0.03,0.04,0.07,0.1,0.11C106.93,48.83,106.89,48.79,106.83,48.74z"/>
					<path class="st1" d="M110.85,50.44l0.51,0.35C111.15,50.62,110.98,50.52,110.85,50.44z"/>
					<path class="st1" d="M113.77,52.07c0.06-0.02,0.09-0.05,0.12-0.07l0,0L113.77,52.07z"/>
					<path class="st1" d="M61.62,47.3c-0.04,0.01-0.09,0.02-0.12,0.04C61.21,47.46,61.41,47.39,61.62,47.3z"/>
					<path class="st1" d="M77.35,44.74c-0.17,0.06-0.33,0.12-0.51,0.16C77.13,44.9,77.35,44.9,77.35,44.74z"/>
					<polygon class="st1" points="44.93,52.96 44.93,52.96 44.83,53 					"/>
					<path class="st1" d="M76.1,44.92c0.29,0.04,0.52,0.02,0.74-0.03C76.61,44.89,76.34,44.87,76.1,44.92z"/>
					<path class="st1" d="M123.5,62.01l0.05,0.14c0.02-0.01,0.03-0.01,0.05,0L123.5,62.01z"/>
					<path class="st1" d="M123.61,62.15c0.04,0.05,0.06,0.1,0.09,0.15C123.67,62.22,123.65,62.16,123.61,62.15z"/>
					<path class="st1" d="M123.88,62.62l-0.18-0.32C123.74,62.42,123.78,62.57,123.88,62.62z"/>
					<path class="st1" d="M121.42,58.3l-0.11,0.03C121.34,58.33,121.38,58.32,121.42,58.3z"/>
					<path class="st1" d="M120.55,57.32c0.21,0.24,0.37,0.72,0.68,1.02l0.09-0.02C121.07,58.26,120.89,57.41,120.55,57.32z"/>
					<path class="st1" d="M117.08,52.68l0.89,0.75c-0.1-0.21-0.23-0.49,0.22-0.19C117.19,52.11,118.29,53.61,117.08,52.68z"/>
					<path class="st1" d="M114.09,50.66c0.58,0.25,0.07-0.14,0.13-0.18C113.82,50.38,113.73,50.36,114.09,50.66z"/>
					<path class="st1" d="M89.26,43.93l0.08-0.25C88.86,43.67,89.33,43.77,89.26,43.93z"/>
					<polygon class="st1" points="84.29,44.96 84.74,45.13 84.97,44.91 					"/>
					<polygon class="st1" points="81.41,43.09 81.62,43.06 80.82,43.15 					"/>
					<path class="st1" d="M39.37,52.99l0.28,0.21C39.91,52.99,39.8,52.65,39.37,52.99z"/>
					<path class="st1" d="M25.76,66.02c-0.25,0.1-0.56,0.57-0.56,0.94C25.4,66.57,25.68,66.22,25.76,66.02z"/>
					<polygon class="st1" points="63.32,96.86 62.94,96.94 63.66,96.9 					"/>
				</g>
			</g>
		</g>
	</g>
</g>
<g>
	<ellipse transform="matrix(0.4344 -0.9007 0.9007 0.4344 -20.6295 107.1483)" cx="75" cy="70" rx="25.5" ry="12"/>
	<g>
		<g>
			<g>
				<g>
					<path class="st1" d="M85.21,74.92c0.05,0.09,0.24,0.15,0.28-0.03l-0.25-0.26L85.21,74.92z"/>
					<path class="st1" d="M86.25,74.11c-0.06-0.26-0.22-0.59-0.55-0.59c0.21,0.32,0.07,0.31,0.32,0.66
						c-0.04,0.18-0.22,0.23-0.32,0.16c0.05,0.09-0.18,0.22-0.03,0.39c0.33-0.1,0.46-0.36,0.39-0.72
						C86.15,73.98,86.2,74.07,86.25,74.11z"/>
					<path class="st1" d="M90.94,57.52l-0.04,0.11C90.91,57.6,90.93,57.57,90.94,57.52z"/>
					<path class="st1" d="M87.56,47.21c0.07,0.06,0.12,0.06,0.14,0.04C87.63,47.21,87.57,47.18,87.56,47.21z"/>
					<path class="st1" d="M85.92,45.9c0.04,0.02,0.07,0.04,0.11,0.06C86,45.92,85.96,45.89,85.92,45.9z"/>
					<path class="st1" d="M90.94,57.52c0.04-0.1,0.07-0.19,0.1-0.29C90.93,57.21,90.97,57.38,90.94,57.52z"/>
					<path class="st1" d="M86.45,71.63c-0.01,0.06,0,0.12,0.02,0.17c0-0.05,0.01-0.1,0.02-0.15L86.45,71.63z"/>
					<path class="st1" d="M90.75,62.32l-0.01,0.09c0.03,0.03,0.07,0.06,0.12,0.09L90.75,62.32z"/>
					<path class="st1" d="M90.06,65.94c0.03-0.08-0.24-0.18-0.35-0.24c0.1,0.07,0.14,0.15,0.15,0.22
						C89.91,65.94,89.97,65.94,90.06,65.94z"/>
					<path class="st1" d="M87.81,71.3l0,0.11C87.81,71.38,87.81,71.33,87.81,71.3z"/>
					<path class="st1" d="M91.15,59.71c0.04,0,0.08-0.01,0.1-0.03C91.22,59.68,91.18,59.69,91.15,59.71z"/>
					<path class="st1" d="M82.69,78.24c0.02,0.01,0.03,0.02,0.04,0.02C82.72,78.24,82.71,78.22,82.69,78.24z"/>
					<path class="st1" d="M85.87,75.24l-0.01,0.06c0.05,0.03,0.09,0.06,0.14,0.08L85.87,75.24z"/>
					<path class="st1" d="M82.09,45.18c0.01,0,0.01,0,0.02,0C82.2,45.13,82.14,45.14,82.09,45.18z"/>
					<path class="st1" d="M61.47,68.15c0.36-0.24,0.09,0.65,0.54,0.26C61.89,68.42,61.79,67.8,61.47,68.15z"/>
					<path class="st1" d="M86.52,71.56c0.01-0.05,0.03-0.09,0.05-0.14C86.54,71.48,86.52,71.52,86.52,71.56z"/>
					<path class="st1" d="M62.02,68.41L62.02,68.41l0.05-0.04C62.04,68.39,62.03,68.4,62.02,68.41z"/>
					<path class="st1" d="M74.71,48.93c0.04,0.03,0.09,0.04,0.14,0.05C74.83,48.96,74.79,48.94,74.71,48.93z"/>
					<path class="st1" d="M80.13,46.27l-0.16,0.02C80.04,46.29,80.08,46.28,80.13,46.27z"/>
					<path class="st1" d="M72.66,51.27c-0.07,0.04-0.12,0.03-0.17,0.13c0.02,0,0.03,0,0.05,0C72.54,51.35,72.57,51.3,72.66,51.27z"
						/>
					<path class="st1" d="M70.49,53.58c0.03,0,0.05,0,0.08-0.01l0.06-0.08L70.49,53.58z"/>
					<path class="st1" d="M77.46,85.73c0.1,0,0.19,0.03,0.28,0.07C77.56,85.7,77.8,85.32,77.46,85.73z"/>
					<path class="st1" d="M86.6,71.69c-0.06-0.04-0.08-0.08-0.08-0.13l-0.02,0.1C86.53,71.68,86.57,71.7,86.6,71.69z"/>
					<path class="st1" d="M74.12,52.95l-0.36,0.3C73.87,53.18,74,53.06,74.12,52.95z"/>
					<path class="st1" d="M61.58,88.51l0.06,0.08C61.64,88.55,61.62,88.52,61.58,88.51z"/>
					<path class="st1" d="M72.82,54.29c-0.13,0-0.23,0.03-0.32,0.07c0,0.03,0,0.06,0.02,0.09L72.82,54.29z"/>
					<path class="st1" d="M77.74,85.8L77.74,85.8L77.74,85.8z"/>
					<path class="st1" d="M79.23,82.96c-0.29,0.35,0.15,0.39,0.26,0.59c-0.26,0.49-0.37,0.03-0.63,0.06
						c-0.13,0.32-0.03,0.74-0.2,0.93c-0.06-0.02-0.11,0-0.13-0.09c0.01,0.48-0.68,0.81-0.68,1.37c-0.05,0-0.08-0.01-0.1-0.02
						c0.18,0.07,0.33,0.19,0.42,0.29c-0.13,0.16-0.08,0.45-0.31,0.34c0.09-0.09,0.03-0.16,0.01-0.26l-0.07,0.23
						c-0.39-0.09,0.11-0.3-0.08-0.47c-0.2,0.39-0.31,0.96-0.62,1.11c-0.29-0.19,0.44-0.62-0.07-0.52l0.43-0.28
						c-0.64-0.08,0.23-0.2-0.42-0.33c-0.49,0.42-0.38,0.64-0.9,1.03c0.03,0.24,0.23,0.16,0.26,0.4c-0.43,0.9-1.09-0.09-1.29,0.67
						c0.02,0.28,0.25,0.65-0.26,0.8l-0.13-0.4c-0.49,0.37,0.09,0.67-0.58,0.88c0-0.18,0.29-0.42,0.2-0.39
						c-0.51,0.05-0.09,0.36-0.35,0.56l-0.26-0.23c-0.49,0.43-0.92,1.09-1.52,1.51c-0.02-0.11,0.03-0.26-0.17-0.26
						c-0.34,0.31-0.75,0.58-1.21,0.72c-0.45,0.15-0.9,0.3-1.33,0.32l-0.2,0.38c-0.07,0.02-0.17-0.08-0.12-0.16
						c-0.34,0.01,0.04,0.18-0.07,0.35c-0.17,0.08-0.28-0.08-0.2-0.2c-0.44,0.41-1.5,0.93-2.1,0.6l0.11-0.09
						c-0.44-0.09-0.53,0.65-0.94,0.3l0.09-0.04c-0.97-0.13-2.07-0.47-2.41-1.21c-0.39,0.25-0.54-0.77-1.02-0.4
						c-0.15-0.62,0.06-0.59-0.24-1.3c-0.08-0.18-0.46-0.09-0.64-0.31l0.27-0.15l-0.45-0.19l0.25-0.32c-0.06-0.06-0.13-0.12-0.17-0.2
						c0.01,0.11-0.04,0.25-0.13,0.27c-0.28-0.33-0.12-1.01,0.02-1.06c-0.2-0.26-0.36-0.55-0.5-0.85c0.13-0.01,0.2,0.14,0.3,0.25
						c-0.41-0.43,0.3-0.17-0.08-0.56c-0.06,0.08-0.19,0.01-0.25,0.01c0.13-0.27,0.01-0.78-0.09-1.18l0.22,0.05
						c-0.01-0.36-0.08-0.73-0.16-1.12c-0.06-0.39-0.1-0.8-0.11-1.21c-0.09,0.3-0.46,0.24-0.5-0.01l0.32-0.1
						c-0.21-0.16-0.12,0.26-0.37-0.06c0.03-0.32,0.36-0.21,0.48-0.03l-0.12-0.38c0.1-0.02,0.15,0.07,0.28,0.09
						c-0.21-0.16,0.35-0.64,0.01-0.87l0.1-0.02c0.03-0.83-0.06-1.21,0.01-1.89c-0.28-0.04-0.19-0.3-0.39-0.53
						c0.13-0.5,0.44-1.02,0.53-1.62c-0.06-0.45-0.21-0.16-0.34-0.38c0.26,0.01,0.34-0.59,0.46-0.25c0.07-0.73,0.14-0.92,0.14-1.88
						c-0.12,0.07-0.19,0.18-0.27,0.1c0-0.18,0.19-0.35,0.31-0.3l0.02,0.05c-0.15-1.13,1.35-2.13,1.07-3.08l0.01,0.05l0.02-0.91
						c0.17-0.36,0.11,0.29,0.35,0.06c-0.11-1.03,0.53-1.37,0.56-2.18c0.46-0.14,0.64-0.63,0.8-1.16c0.17-0.53,0.35-1.09,0.73-1.35
						l-0.18-0.03c-0.07-0.26,0.2-0.19,0.3-0.31c-0.13-0.04-0.24,0.14-0.27-0.02c0.53-1.7,1.84-3.15,2.88-4.6
						c0.37-0.54-0.61-0.8,0.2-1.28l0.15,0.37c0.19-0.66,0.56-1.24,0.93-1.79c0.4-0.54,0.8-1.08,1.05-1.71
						c0.02,0.11,0.09,0.17,0.02,0.27c0.34-0.09,0.62-0.8,0.47-0.92c0.14-0.14,0.17,0.07,0.32,0.04c0.28-0.12,0.19-0.73,0.47-0.69
						c0.05,0.01,0.01,0.11,0,0.16c0.02-0.21,0.54-0.63,0.22-0.67c0.41-0.29,0.52-0.78,0.9-0.96c-0.06-0.4,0.66-0.52,0.39-0.88
						c0.3,0.33,0.86-0.34,0.93-0.71c0.02,0.17,0.29-0.09,0.33,0.13c0.24-0.25,0.41-0.53,0.21-0.66c0.83-0.03,0.68-1.18,1.4-0.89
						c0.3-0.44,0.65-0.78,0.98-1.15c0.33-0.37,0.68-0.68,1.05-0.96c0.21,0.4-0.84,0.57-0.52,0.96c0.6-0.62,0.82-1.25,1.64-1.55
						c0.23-0.04-0.02,0.23-0.05,0.33c0.33-0.27,0.71-0.44,1.07-0.62c0.36-0.15,0.72-0.27,1.03-0.52c0.01,0.04-0.05,0.11-0.11,0.17
						c0.13-0.06,0.34-0.05,0.26-0.24l-0.12,0.1c-0.32-0.21,0.38-0.79,0.39-0.92c-0.11,0.62,0.78-0.02,0.54,0.79
						c0.08-0.06,0.18-0.18,0.13-0.31c0.15,0.01,0.2,0.08,0.09,0.26c0.48-0.22,0.27-0.4,0.74-0.42c0.01,0.1-0.08,0.14-0.12,0.26
						c0.21-0.2,0.45-0.41,0.84-0.35c-0.03,0.06,0.02,0.14-0.1,0.14c0.33-0.02,0.61-0.07,0.93-0.14c0.32-0.09,0.64-0.03,0.96,0.18
						c-0.35,0.33,0.19,0.22,0.07,0.57c0.14-0.01,0.26,0.03,0.38,0.06l-0.05-0.24c0.27,0.18,0.69,0.12,0.88,0.38l-0.31-0.01
						l0.29,0.14l0.26,0.2c-0.06-0.12-0.11-0.25-0.19-0.36c0.4,0.08,0.27-0.41,0.56,0.02c-0.1-0.04,0.27,0.27,0.25,0.55l0,0
						c0.23,0.03,0.44,0.11,0.52,0.4c-0.05,0.13-0.36,0.21-0.4,0.29c0.34-0.03,0.58,0.6,0.94,0.66c-0.1-0.03-0.27,0.06-0.3,0.1
						l0.29,0.01c0.01,0.19-0.02,0.23-0.17,0.28c0.18,0.48,0.35-0.36,0.44,0.28c-0.04-0.03-0.06,0-0.14-0.07
						c0.21,0.57,0.57,1.06,0.66,1.64c-0.31,0.26-0.25-0.44-0.49-0.17c0.18,0.36,0.36,0.75,0.54,1.14c0.18,0.39,0.35,0.8,0.33,1.21
						l0.02-0.16c0.54,0.04-0.19,0.63,0.1,1.01c-0.05-0.1-0.31-0.1-0.25-0.08c0,0.55,0.18,1.11,0.39,1.96l-0.14-0.1
						c-0.1,0.33-0.09,0.86-0.16,1.21c0.13,0.11,0.1,0.31,0.3,0.2c-0.79,1.04,0.23,2.14-0.52,3.04c0.02-0.12-0.08-0.29-0.09-0.2
						l-0.01,0.84c0.24-0.03,0.16-0.08,0.36-0.23c0.12,0.13,0.18,0.38,0.15,0.58c-0.09-0.4-0.37-0.06-0.52,0.08
						c0.07-0.01,0.14,0.05,0.22,0.05c-0.48,0.36,0.44,0.16,0.07,0.7l-0.11-0.05c0.03,0.23,0.14,0.47,0.05,0.7
						c-0.28,0.04-0.07-0.26-0.28-0.32c-0.06,0.33,0.34,0.76,0.02,1c-0.04-0.16,0.01-0.36-0.03-0.52c-0.38,0.26-0.31,0.31-0.42,0.54
						l0.01-0.02l-0.27,0.52l0.12-0.12c0.59,0.58-0.07,0.87,0.2,1.53c-0.26-0.65-0.22-0.15-0.5-0.28c-0.12,0.12-0.27,0.3-0.34,0.22
						c0.16,0.32-0.31,0.37-0.07,0.84c-0.1-0.01-0.09,0.27-0.31,0.14c-0.02,0.36,0.18-0.03,0.29,0.03c0.18,0.62-0.78,1.07-0.59,1.95
						c-0.04,0.7,0.23,0.93,0.15,1.57c-0.22,0.14-0.27-0.29-0.27-0.29c-0.26,0.26-0.33,0.51-0.34,0.85
						c-0.06-0.09-0.15-0.06-0.28-0.01c-0.07,0.25,0.27,0.29,0.01,0.55c-0.08-0.1-0.21-0.23-0.27-0.39
						c-0.03,0.31,0.04,0.66-0.01,0.98c-0.19,0.01-0.16-0.27-0.22-0.42c-0.06,0.35-0.23,0.89-0.02,1.1l0.18-0.17
						c-0.04,0.12-0.24-0.03-0.24-0.14c-0.07-0.36,0.26-0.36,0.36-0.34l-0.03,0.23c0.63,0.02,0.26-0.87,0.46-1.27l0.32,0.33
						l-0.15-0.56c0.14-0.05,0.38-0.03,0.35,0.2c0.31-0.23-0.03-0.32,0.28-0.5c0.04-0.02,0.06,0,0.06,0.04l0-0.34
						c0.06,0.09,0.29,0.05,0.17,0.22c0.44-0.45,0.03-0.97,0.4-1.07l0.01,0.05c0.12-0.8-0.26-0.18-0.41-0.85l0.84-0.14L88.55,69
						c0.04-0.07,0.11-0.22,0.22-0.15c-0.1-0.35-0.14,0.01-0.27-0.22c0.4-0.28,0.2-1.07,0.69-1.01c-0.18-0.2-0.27,0.31-0.31-0.14
						c0.53,0.03,0.05-0.49,0.38-0.77c0.23,0.18,0,0.47,0.33,0.19c-0.38-0.33,0.29-0.65,0.29-0.97c-0.35-0.1,0-0.68,0-1.21
						c0.1,0.06,0.43-0.89,0.63-1.34l0.06,0.03c-0.34-0.16-0.19-0.63-0.21-1c0.21,0.05,0.29,0.13,0.35,0.34l0.06-0.33
						c-0.1-0.1-0.15-0.21-0.15-0.43l0.26,0.13c0.07-0.45-0.19-0.94,0.06-1.5c-0.25-0.06-0.76,0.37-0.86-0.25
						c0.14-0.01,0.38,0,0.42,0.16c-0.01-0.05-0.09-0.2-0.02-0.29l0.2,0.27c0.13-0.25-0.18-0.16-0.13-0.36
						c0.2,0.02,0.16-0.14,0.31-0.1c0.01,0.06-0.1,0.17-0.03,0.26c0.06-0.23,0.21-0.51,0.37-0.59c-0.11,0.01-0.26-0.02-0.27-0.2
						c0.01-0.45,0.25-0.14,0.36-0.39c-0.13-0.12,0.02-0.4-0.27-0.42c0.01-0.13,0.15-0.15,0.23-0.2c-0.12-0.24,0.01-1.1-0.31-0.84
						l-0.02,0.06c0-0.01-0.01-0.02-0.01-0.04l0,0l0,0c-0.29-0.76,0.15-1.59-0.03-2.34l0.1-0.01c-0.16-0.44-0.18-1-0.43-1.29
						c-0.01-0.13,0.14-0.34,0.26-0.3c-0.15-0.33-0.26-0.35-0.21-0.88c0.24,0.31,0.12-0.15,0.2,0.33c-0.01-0.47,0.12-0.61-0.25-1.03
						c0.29,0.1,0.2-0.42,0.05-0.61l-0.07,0.36c-0.11-0.23-0.16-0.44-0.21-0.66l0.35,0.01c0.04-0.53-0.27-0.9-0.6-1.21
						c-0.32-0.31-0.54-0.6-0.47-1.1c-0.18-0.05-0.13,0.09-0.09,0.22c0.03,0.14,0.04,0.29-0.12,0.26c-0.18-0.39-0.09-1.05-0.18-1.18
						c-0.24-0.66-0.75-0.16-1.12-0.71c-0.02,0.15-0.19,0.42-0.6,0.19c-0.27-0.34-0.13-0.72,0.18-0.64c0.09,0.07,0.1,0.14,0.07,0.16
						c0.14,0.07,0.32,0.17,0.26-0.06l-0.12,0.05c-0.06-0.28-0.66-0.6-0.41-0.69c-0.38-0.1-0.24,0.08-0.05,0.27
						c-0.44-0.45-0.78-0.57-1.35-0.86c0.07,0.1,0.1,0.26,0.01,0.22c-0.81-0.45-0.45,0.07-1.03-0.07c-0.3-0.22,0.22-0.4-0.42-0.34
						c-0.36-0.17-0.04-0.32,0.14-0.4c-0.61,0.14-1.09-0.31-1.43-0.31l0.31-0.11c-0.19,0.06-0.34,0.07-0.5,0.08l0.18,0.23
						c-0.18-0.03-0.33-0.03-0.33-0.13c-0.17,0.16,0.15,0.39-0.18,0.62c-0.24-0.12-0.67,0.17-0.79-0.1c0.72-0.01-0.14-0.33,0.49-0.43
						c-0.12,0.05-0.27,0.04-0.45,0.05c-0.03-0.03,0.01-0.07,0.06-0.1c-0.75-0.13-0.26,0.42-0.96,0.56c0.05-0.19-0.25-0.29-0.35-0.23
						c0.29-0.06,0.21,0.26-0.01,0.44c-0.46,0.01-0.42,0.26-0.64,0.32l0.27-0.03c-0.03,0.2-0.24,0.25-0.5,0.41
						c-0.07-0.12,0.22-0.18,0.1-0.2c-0.2,0.4-0.85-0.05-1.18,0.37c-0.25-0.01-0.16-0.29-0.37-0.28c-0.37,0.45-0.64,0.03-1.05,0.48
						c0.26,0.12,0.25,0.06,0.04,0.46c0.22-0.22,0.47-0.4,0.72-0.58l-0.36,0.57c0.24-0.12,0.44-0.39,0.61-0.43
						c-0.16,0.3-0.16,0.23,0.05,0.35c-0.5-0.16-0.55,0.51-1.02,0.53l-0.29-0.51c-0.69,0.13-0.84,0.85-1.57,1.24l0.27-0.08
						c0.05,0.26-0.39,0.33-0.55,0.57c-0.1-0.17-0.28-0.13-0.45-0.15c0.1,0.1-0.5,0.36-0.3,0.72l-0.45,0.04
						c-0.58,0.36-0.2,0.92-0.72,1.29c0-0.28-0.32-0.19-0.1-0.59c-0.17,0.14-0.33,0.24-0.24,0.35c-0.17,0-0.24,0.61-0.5,0.61
						c0,0.13,0.12,0.29-0.06,0.45c-0.05-0.01-0.07-0.07-0.07-0.07c0.07,0.07-0.17,0.36,0.13,0.36c-0.92,0.01-1.2,1.36-1.97,1.42
						c-0.27,0.38-0.56,0.86-0.81,1.2c-0.03-0.06-0.08-0.06-0.01-0.11c-0.5,0.34,0.22,0.63-0.35,1.01c-0.46,0.07,0.08-0.38-0.15-0.29
						c-0.57-0.33-0.43,0.67-0.98,0.81l0.03-0.11c-0.38,0.15-0.28,0.82-0.64,1.24c0,0-0.03-0.05-0.08-0.06
						c0.04,0.49-0.25,1.15-0.45,1.65c-0.12-0.28,0.02-0.28-0.25-0.33c-0.1,0.22,0.38,0.17,0.19,0.6c-0.2,0.05-0.49,0.28-0.75,0.17
						l0.23-0.39c-0.43,0-0.3,0.5-0.48,0.66l-0.12-0.11c-0.32,0.61,0.03,0.83-0.37,1.45l0.14-0.01c0.14,0.54-0.36,0.18-0.31,0.67
						l-0.4-0.09c-0.06,0.27-0.12,0.99-0.27,1.45c-0.14-0.37-0.02-0.95,0.01-1.33c-0.14,0.22-0.4,0.81-0.29,1.02
						c0.01-0.11-0.01-0.28,0.09-0.34c0.13,0.43,0.07,0.88-0.17,1.34c-0.64-0.43-0.8,1.12-1.48,1.23c-0.12,0.97-0.9,1.63-1.24,2.68
						c0.69-0.14-0.1,0.3,0.49,0.47c-0.06,0.25-0.1,0.33-0.15,0.34l-0.62,0.58c-0.23,0.11-0.04-0.27-0.17-0.3
						c-0.25,0.5-0.34,0.12-0.61,0.42c0.23,0,0.23,0.29,0.05,0.57l0.41-0.33c0.06,0.84-0.7,0.47-0.65,1.32l-0.1-0.3
						c-0.03,0.42-0.48,1.42-0.11,1.95c-0.09,0.05-0.27,0.09-0.27-0.09c-0.17,0.46-0.19,1.01-0.23,1.52
						c-0.03,0.52-0.06,1.01-0.29,1.34l-0.13-0.1c0,0.19,0.2,0.37,0.01,0.55c-0.06-0.02-0.13-0.1-0.16-0.02
						c0.03,0.11,0.14,0.52,0.02,0.74l-0.12-0.23c-0.37,0.9,0.15,1.51,0.12,2.29c-0.45-0.07-0.66,0.66-0.78,1.02l-0.06-0.02
						c-0.2,1.1,0.2,1.92,0.33,2.94c-0.27,0.31-0.28,0.86-0.29,1.46c-0.03,0.6,0.05,1.24-0.02,1.78c0.06-0.17,0.34-0.01,0.41,0.16
						c-0.06,0.26,0.38,0.62-0.02,0.65l0-0.09c-0.37,0.24-0.15,0.74-0.08,1.14l0.53-0.05c-0.3,0.59,0.01,1.25,0.29,1.82
						c0.25,0.58,0.66,1.03,0.47,1.47c0.23,0.18,0.38,0.47,0.66,0.6l-0.25,0.14c0.38,0.66,0.55,1.02,1.33,1.63l-0.28,0.01
						c0.41,0.4,1.02-0.12,1.42,0.09l-0.11,0.43c0.4,0.25,0.75,0.59,1.21,0.77c0.44,0.2,0.9,0.4,1.4,0.24
						c-0.03,0.06-0.07,0.18-0.23,0.17c0.22,0.04,0.64,0.17,1,0.21c0.36,0.05,0.63-0.08,0.55-0.36c0.01,0.36,0.96,0.03,1.38-0.24
						l-0.03,0.29c0.34-0.43,0.32-0.53,0.83-0.74c0.13,0.01,0.17,0.19-0.02,0.16c0.46,0.05,0.26-0.31,0.78-0.34l-0.13,0.23
						c0.42-0.13,0.36-0.21,0.51-0.48c0.21-0.2,0.79-0.2,0.94-0.02c-0.01-0.17,0.11-0.46,0.37-0.5c0.07,0.07,0.02,0.16-0.01,0.21
						c0.73-0.16,0.81-0.74,1.35-0.78c0.06,0.07,0.11,0.1,0.16,0.1c-0.47,0.31-0.91,0.48-0.88,0.45c0.12,0.23,0.56,0.05,0.39,0.54
						c0.27-0.33,0.57-1.05,1.02-1.18c0.03,0.01,0.06,0.02,0.1,0.04l-0.02,0.05c0.1-0.03,0.17-0.1,0.22-0.19
						c0.15-0.04,0.24-0.06,0.36-0.14c0.17,0.15,0.49-0.22,0.68-0.35c-0.18-0.22,0.08-0.36-0.28-0.38c0.04-0.01-0.01,0.05-0.13,0.15
						c-0.02,0.03-0.05,0.05-0.06,0.08l0-0.03c-0.12,0.09-0.26,0.23-0.45,0.34c0.08-0.21,0.15-0.43,0.44-0.45
						c-0.01-0.22-0.02-0.44-0.02-0.55c0.47,0.13,1.09-0.06,1.3,0.08c0.44-0.56,1.18-1.15,1.14-1.82c0.1-0.18,0.26-0.04,0.37-0.03
						c-0.04,0.12-0.14,0.21-0.14,0.3c0.2-0.36,0.79-0.85,0.59-1.17c0.46-0.23,0.05,0.43,0.48-0.08l0.02,0.14
						c0.69-0.25,0.88-0.83,1.08-1.39c0.21-0.56,0.45-1.09,1.18-1.43c-0.1,0.05-0.15,0.08-0.21,0.05c1.32-1.09,1.83-2.88,3.15-3.96
						c0.34-0.33,0.17-0.51,0.17-0.84l0.31,0.08l-0.03-0.59c0.14-0.71,1.24-0.65,1.26-1.65l-0.23,0c0.19-0.25,0.39-0.91,0.56-0.76
						c-0.02-0.05-0.14-0.19,0.01-0.25l0.14,0.07l0.11-0.81c0.37-0.48,0.51,0.37,0.94-0.39c0.09-0.32,0.01-1.02-0.14-0.96
						c-0.07,0.11-0.24,0.25-0.39,0.19l0.06-0.3c-0.39-0.25-0.73-0.65-1.34-0.17l0.03,0.56l-0.27,0.04l0.17-0.37
						c-0.3,0.11-0.2,0.33-0.16,0.53c-0.12-0.02-0.23,0-0.31,0.07l0.18,0.63c-0.19-0.03-0.22-0.36-0.46-0.12
						c0.08,0.3,0.46,0,0.41,0.4c-0.3,0.11-0.41-0.03-0.38,0.3c-0.12-0.02-0.16-0.11-0.16-0.23c0.01,0.28-0.27,0.59-0.11,0.82
						c-0.35,0.08-0.35,0.75-0.72,0.51c0.05,0.12,0.08,0.55-0.01,0.75c-0.24-0.62-0.46,0.71-0.89,0.31c0.24,0.5-0.41,1.03-0.48,1.63
						c-0.02-0.05-0.05-0.14,0-0.16c-0.2,0.23-0.36,0.23-0.54,0.34c0.3,0.25,0.1,0.69,0.15,1.03c-0.52,0.08-0.25-0.45-0.61-0.56
						c0.27,0.17-0.11,0.7,0.17,0.76c-0.35,0.09-0.23,0.13-0.58,0.06c0.37,0.33-0.09,0.26,0.02,0.63c-0.44,0.18-0.43-0.19-0.59,0.25
						C79.12,83.37,79.23,82.96,79.23,82.96z M72.24,90.84L72.24,90.84c0.07-0.06,0.13-0.1,0.17-0.13
						C72.38,90.73,72.33,90.77,72.24,90.84z M71.5,91.31c0.1-0.05,0.21-0.12,0.33-0.19c0.08,0.07,0.1,0.17,0.02,0.21
						C71.85,91.25,71.65,91.31,71.5,91.31z M74.19,91.89c-0.1,0.12-0.17,0.11-0.22,0.07c0.05-0.05,0.12-0.11,0.19-0.19l-0.01-0.04
						C74.18,91.8,74.19,91.85,74.19,91.89z"/>
					<path class="st1" d="M74.2,91.43c0.01-0.02,0.02-0.03,0.04-0.05c-0.04,0-0.07,0-0.11,0l0.01,0.1L74.2,91.43z"/>
					<path class="st1" d="M90.88,57.65l0.01-0.02c-0.01,0.02-0.02,0.03-0.04,0.04C90.86,57.66,90.87,57.66,90.88,57.65z"/>
					<polygon class="st1" points="62.08,89.26 62.02,89.3 62.11,89.33 					"/>
					<path class="st1" d="M89.41,62.59c-0.03,0.01-0.05,0.02-0.08,0.05C89.35,62.64,89.38,62.62,89.41,62.59z"/>
					<path class="st1" d="M88.91,64.69l-0.17,0.27C88.83,64.85,88.88,64.76,88.91,64.69z"/>
					<path class="st1" d="M88.38,66.26c0.04,0.03,0.08,0.05,0.11,0.06l0,0L88.38,66.26z"/>
					<path class="st1" d="M80.85,48.01c-0.02,0.01-0.04,0.02-0.05,0.03C80.68,48.14,80.76,48.09,80.85,48.01z"/>
					<path class="st1" d="M87.54,48.67c-0.09-0.02-0.19-0.04-0.27-0.07C87.36,48.7,87.42,48.77,87.54,48.67z"/>
					<polygon class="st1" points="74.16,52.91 74.16,52.91 74.12,52.95 					"/>
					<path class="st1" d="M87.04,48.36c0.06,0.13,0.14,0.2,0.24,0.24C87.21,48.51,87.14,48.4,87.04,48.36z"/>
					<path class="st1" d="M85.86,72.98l-0.04,0.07c0.02,0.01,0.03,0.02,0.04,0.03L85.86,72.98z"/>
					<path class="st1" d="M85.85,73.08l-0.01,0.09C85.86,73.13,85.87,73.1,85.85,73.08z"/>
					<path class="st1" d="M85.83,73.37l0.01-0.2C85.82,73.23,85.78,73.3,85.83,73.37z"/>
					<path class="st1" d="M86.81,71l-0.09-0.06C86.74,70.96,86.77,70.98,86.81,71z"/>
					<path class="st1" d="M87.03,70.37c-0.08,0.14-0.35,0.29-0.37,0.52l0.07,0.05C86.62,70.79,87.13,70.57,87.03,70.37z"/>
					<path class="st1" d="M89.13,68.11c-0.07,0.18-0.17,0.35-0.25,0.52c0.14-0.06,0.32-0.14,0.26,0.11
						C89.67,68.15,88.86,68.81,89.13,68.11z"/>
					<path class="st1" d="M89.77,66.44c-0.04,0.31,0.15,0.04,0.21,0.07C89.94,66.29,89.93,66.24,89.77,66.44z"/>
					<path class="st1" d="M90.82,53.58l0.26-0.01C91,53.34,90.98,53.59,90.82,53.58z"/>
					<polygon class="st1" points="88.94,51.58 88.85,51.83 89.11,51.85 					"/>
					<polygon class="st1" points="90.01,49.5 90.09,49.58 89.81,49.23 					"/>
					<path class="st1" d="M70.68,52.99l0.28,0.16C71.03,52.99,70.79,52.73,70.68,52.99z"/>
					<path class="st1" d="M65.49,60.81c-0.19,0.01-0.41,0.19-0.35,0.41C65.26,61.05,65.47,60.93,65.49,60.81z"/>
					<polygon class="st1" points="58.87,87.88 58.73,87.71 58.9,88.06 					"/>
				</g>
			</g>
		</g>
	</g>
</g>
</svg>
