<?xml version="1.0" encoding="utf-8"?>
<!-- Generator: Adobe Illustrator 24.2.1, SVG Export Plug-In . SVG Version: 6.00 Build 0)  -->
<svg version="1.1" id="Layer_1" xmlns="http://www.w3.org/2000/svg" xmlns:xlink="http://www.w3.org/1999/xlink" x="0px" y="0px"
	 viewBox="0 0 140 140" style="enable-background:new 0 0 140 140;" xml:space="preserve">
<style type="text/css">
	.st0{fill:#FFFFFF;}
	.st1{fill:#202020;}
</style>
<g>
	<ellipse transform="matrix(0.9964 -0.0853 0.0853 0.9964 -5.7151 6.2252)" class="st0" cx="70" cy="70" rx="50.5" ry="25.5"/>
	<g>
		<g>
			<g>
				<g>
					<path class="st1" d="M119.65,65.75c0.1,0.12,0.29,0.03,0.2-0.31l-0.36-0.2L119.65,65.75z"/>
					<path class="st1" d="M119.84,63.35c-0.25-0.37-0.7-0.71-0.89-0.37c0.44,0.28,0.33,0.41,0.79,0.73c0.12,0.33,0.04,0.62-0.1,0.58
						c0.13,0.1,0.02,0.54,0.25,0.69c0.22-0.49,0.07-1.07-0.27-1.6C119.66,63.24,119.77,63.34,119.84,63.35z"/>
					<path class="st1" d="M91.96,45.12l0.21,0.08C92.12,45.16,92.05,45.14,91.96,45.12z"/>
					<path class="st1" d="M70.37,43.76c0.16-0.02,0.23-0.05,0.24-0.08C70.46,43.71,70.33,43.73,70.37,43.76z"/>
					<path class="st1" d="M66.64,43.69c0.08,0,0.15,0,0.22,0C66.78,43.67,66.69,43.66,66.64,43.69z"/>
					<path class="st1" d="M91.96,45.12l-0.55-0.2C91.35,45.02,91.69,45.05,91.96,45.12z"/>
					<path class="st1" d="M117.16,59.49c0.08,0.09,0.16,0.15,0.24,0.2l-0.19-0.21C117.2,59.48,117.18,59.48,117.16,59.49z"/>
					<path class="st1" d="M101.31,47.22l0.17,0.06c0.06-0.02,0.12-0.05,0.18-0.08L101.31,47.22z"/>
					<path class="st1" d="M108.16,50.01c-0.14-0.09-0.32,0.13-0.43,0.21c0.14-0.06,0.27-0.05,0.41,0
						C108.16,50.17,108.17,50.11,108.16,50.01z"/>
					<path class="st1" d="M117.13,57.52l0.16,0.14C117.24,57.62,117.18,57.56,117.13,57.52z"/>
					<path class="st1" d="M96.25,45.69c0-0.04-0.02-0.09-0.04-0.11C96.2,45.61,96.22,45.65,96.25,45.69z"/>
					<path class="st1" d="M117.33,73.2c0.02,0.01,0.03,0.01,0.04,0.02C117.36,73.18,117.35,73.16,117.33,73.2z"/>
					<path class="st1" d="M120.39,65.69l0.02,0.12c0.05,0.01,0.11,0.02,0.16,0.01L120.39,65.69z"/>
					<path class="st1" d="M59.84,44.21c0.01,0,0.02,0,0.03,0C60.04,44.15,59.94,44.17,59.84,44.21z"/>
					<path class="st1" d="M21.86,82.62c-0.26-0.72,1,0.73,0.53-0.3C22.37,82.47,21.42,81.79,21.86,82.62z"/>
					<path class="st1" d="M117.09,59.32l-0.16-0.23C117,59.2,117.05,59.27,117.09,59.32z"/>
					<path class="st1" d="M22.39,82.32L22.39,82.32l-0.05-0.1C22.37,82.26,22.38,82.28,22.39,82.32z"/>
					<path class="st1" d="M44.65,48.25c0.05,0.04,0.12,0.05,0.19,0.06C44.82,48.29,44.78,48.26,44.65,48.25z"/>
					<path class="st1" d="M56.01,45.51l-0.29,0.02C55.84,45.53,55.93,45.52,56.01,45.51z"/>
					<path class="st1" d="M39.15,50.88c-0.15,0.05-0.22,0.03-0.4,0.16c0.02,0,0.05,0.01,0.07,0C38.88,50.97,38.96,50.91,39.15,50.88
						z"/>
					<path class="st1" d="M33.52,53.77c0.04,0,0.09-0.01,0.13-0.01c0.05-0.04,0.11-0.08,0.17-0.12L33.52,53.77z"/>
					<path class="st1" d="M104.03,85.33c0.16,0.01,0.27,0.04,0.37,0.09C104.22,85.29,104.97,84.8,104.03,85.33z"/>
					<path class="st1" d="M117.29,59.4c-0.08,0.01-0.14-0.01-0.2-0.08c0.04,0.05,0.08,0.1,0.12,0.16
						C117.26,59.46,117.3,59.45,117.29,59.4z"/>
					<path class="st1" d="M39.83,53l-0.9,0.37C39.19,53.28,39.52,53.15,39.83,53z"/>
					<path class="st1" d="M61.28,94.59l0.23-0.03C61.42,94.56,61.34,94.56,61.28,94.59z"/>
					<path class="st1" d="M36.38,54.71c-0.2,0-0.39,0.03-0.57,0.09c-0.02,0.04-0.06,0.08-0.06,0.12L36.38,54.71z"/>
					<path class="st1" d="M104.4,85.42L104.4,85.42L104.4,85.42z"/>
					<path class="st1" d="M109.4,81.44c-0.74,0.53-0.14,0.54-0.17,0.83c-0.84,0.72-0.57,0.07-0.99,0.13
						c-0.49,0.48-0.77,1.03-1.2,1.3c-0.06-0.03-0.16,0-0.1-0.12c-0.45,0.65-1.83,1.14-2.4,1.87c-0.07,0-0.11-0.01-0.14-0.03
						c0.21,0.1,0.32,0.25,0.36,0.38c-0.37,0.21-0.58,0.58-0.83,0.44c0.23-0.12,0.2-0.21,0.27-0.34l-0.34,0.3
						c-0.51-0.12,0.47-0.39,0.35-0.62c-0.69,0.52-1.45,1.22-2.09,1.42c-0.27-0.24,1.32-0.79,0.4-0.67c0.32-0.11,0.65-0.22,0.96-0.34
						c-0.93-0.11,0.55-0.26-0.33-0.43c-1.23,0.5-1.23,0.84-2.48,1.3c-0.19,0.3,0.21,0.21,0.02,0.51c-1.58,1.11-1.7-0.18-2.79,0.78
						c-0.24,0.35-0.21,0.8-1.22,0.95l0.18-0.48c-1.22,0.42-0.48,0.8-1.85,1.01c0.18-0.22,0.91-0.46,0.71-0.44
						c-0.93,0.02-0.51,0.41-1.14,0.64l-0.24-0.27c-1.27,0.51-2.64,1.21-4.09,1.69c0.05-0.12,0.27-0.3-0.1-0.3
						c-1.79,0.71-3.98,1.02-5.82,1.23l-0.63,0.43c-0.16,0.03-0.33-0.07-0.16-0.16c-0.73,0.04,0,0.19-0.32,0.37
						c-0.4,0.1-0.57-0.06-0.33-0.2c-1.19,0.51-3.49,1.19-4.87,1.07l0.25-0.13c-1.05,0.04-1.09,0.77-2.09,0.62l0.18-0.07
						c-2.27,0.19-4.76,0.65-6.53,0.32c-0.31,0.45-2.26-0.08-2.38,0.52c-1.31-0.24-0.94-0.37-2.77-0.52
						c-0.49-0.02-0.72,0.37-1.33,0.43l-0.01-0.31l-0.82,0.32l-0.43-0.37l-0.57,0.06c0.22,0.03,0.48,0.15,0.44,0.24
						c-0.89,0.11-2.15-0.28-2.16-0.44l-2.1,0.15c0.05-0.12,0.41-0.14,0.69-0.21c-1.13,0.25-0.18-0.33-1.22-0.11
						c0.13,0.08-0.09,0.18-0.11,0.24c-0.49-0.23-1.65-0.32-2.51-0.33l0.18-0.19c-1.53-0.22-3.24-0.26-4.95-0.55
						c0.6,0.2,0.4,0.54-0.11,0.49l-0.15-0.36c-0.36,0.14,0.51,0.21-0.2,0.34c-0.64-0.15-0.37-0.44,0.02-0.48l-0.8-0.02
						c-0.03-0.1,0.16-0.12,0.23-0.24c-0.36,0.15-1.27-0.57-1.79-0.32l-0.02-0.1c-1.69-0.35-2.48-0.42-3.84-0.76
						c-0.1,0.26-0.61,0.06-1.08,0.17c-0.97-0.38-2.01-0.91-3.19-1.3c-0.87-0.15-0.32,0.14-0.75,0.17c0.02-0.26-1.14-0.68-0.48-0.63
						c-1.41-0.49-1.79-0.63-3.59-1.22c0.14,0.18,0.33,0.32,0.19,0.35c-0.33-0.11-0.66-0.43-0.56-0.52l0.09,0.01
						c-0.52-0.13-1.04-0.39-1.53-0.71c-0.5-0.3-0.98-0.67-1.43-1.04c-0.46-0.36-0.89-0.73-1.31-1.04c-0.43-0.3-0.83-0.55-1.24-0.69
						l0.09,0.03c-0.52-0.26-1.03-0.53-1.53-0.83c-0.58-0.54,0.49,0.15,0.14-0.34c-1.68-0.88-2.09-1.99-3.22-2.97
						c-0.04-0.34-0.19-0.71-0.41-1.11c-0.23-0.39-0.5-0.82-0.77-1.27c-0.29-0.44-0.5-0.93-0.71-1.38c-0.15-0.47-0.28-0.91-0.26-1.3
						l-0.15,0.13c-0.26-0.33-0.01-0.48-0.03-0.76c-0.13,0.07-0.06,0.44-0.21,0.23c-0.49-1.59-0.47-3.36-0.03-5.02
						c0.43-1.67,1.24-3.22,2.18-4.64c0.35-0.52,0.26-0.79,0.23-1.08c-0.03-0.29,0-0.6,0.67-1.12l-0.01,0.56
						c1.22-2.34,3.51-4.01,5.35-5.85c-0.08,0.16-0.02,0.24-0.22,0.39c0.58-0.15,1.61-1.23,1.52-1.38c0.35-0.22,0.18,0.09,0.44,0.03
						c0.52-0.21,0.97-1.05,1.35-1c0.06,0.01-0.09,0.15-0.16,0.22c0.24-0.29,1.43-0.88,0.99-0.93c0.92-0.38,1.55-1.08,2.34-1.3
						c0.3-0.52,1.56-0.67,1.51-1.12c0.14,0.43,1.71-0.45,2.2-0.89c-0.13,0.21,0.55-0.1,0.41,0.18c0.64-0.31,1.21-0.64,1.01-0.8
						c1.41-0.02,2.3-1.41,3.24-1.03c1.91-0.96,3.74-1.75,5.56-2.38c0.06,0.44-2.03,0.65-1.8,1.09c1.67-0.72,2.59-1.39,4.37-1.73
						c0.47-0.06-0.21,0.26-0.34,0.37c1.71-0.65,3.43-0.8,4.97-1.36c0,0.04-0.16,0.12-0.31,0.19c0.31-0.08,0.74-0.08,0.67-0.28
						l-0.29,0.12c-0.56-0.19,1.13-0.87,1.16-1.02c-0.43,0.67,1.61-0.14,0.89,0.75c0.2-0.07,0.44-0.22,0.37-0.34
						c0.32-0.02,0.43,0.05,0.14,0.26c1.11-0.31,0.67-0.45,1.7-0.61c0.01,0.1-0.19,0.17-0.28,0.3c0.49-0.27,0.99-0.54,1.87-0.59
						c-0.04,0.07,0.07,0.13-0.19,0.17c1.49-0.22,2.49-0.85,4.17-0.81c-0.45,0.48,0.58,0.09,0.7,0.45c0.29-0.07,0.58-0.13,0.88-0.19
						l-0.37-0.15c0.78-0.05,1.45-0.37,2.13-0.3l-0.57,0.2c0.49-0.06,0.97-0.12,1.46-0.16l-0.84-0.1c0.78-0.24-0.11-0.47,0.94-0.42
						c-0.21,0.05,0.79-0.03,1.2,0.17l0,0c0.38-0.14,0.78-0.28,1.36-0.2c0.15,0.12-0.11,0.42-0.01,0.49
						c0.37-0.31,1.83-0.14,2.31-0.46c-0.16,0.08-0.17,0.27-0.12,0.31l0.32-0.25c0.36,0.08,0.42,0.12,0.36,0.28
						c1.09,0.05-0.34-0.48,0.95-0.27c-0.1,0.02-0.05,0.06-0.27,0.1c1.3,0.11,2.52-0.11,3.71,0.07c0.33,0.39-1.05,0.04-0.66,0.38
						c1.71,0.01,3.58-0.24,5.23,0.02l-0.3-0.08c0.28-0.5,1.21,0.4,2.07,0.24c-0.21,0.02-0.3,0.26-0.24,0.21
						c1.12,0.23,2.32,0.16,4.06,0.3l-0.23,0.1c0.64,0.22,1.73,0.38,2.43,0.59c0.24-0.09,0.64,0.01,0.43-0.23
						c2.01,1.23,4.27,0.56,5.99,1.79c-0.23-0.07-0.57-0.05-0.39,0.01c0.55,0.11,1.1,0.25,1.64,0.39c-0.05-0.26-0.16-0.2-0.45-0.49
						c0.25-0.06,0.73-0.01,1.13,0.13c-0.77-0.1-0.11,0.35,0.15,0.58c-0.03-0.08,0.1-0.12,0.1-0.2c0.69,0.69,0.3-0.39,1.34,0.3
						l-0.1,0.09c0.44,0.1,0.9,0.1,1.33,0.33c0.08,0.33-0.49-0.07-0.6,0.12c0.63,0.25,1.44,0.06,1.91,0.55
						c-0.3-0.05-0.68-0.21-0.98-0.26c0.49,0.56,0.6,0.5,1.03,0.76l-0.04-0.03l0.98,0.62l-0.23-0.2c1.08-0.27,1.6,0.66,2.83,0.83
						c-1.18-0.19-0.28,0.12-0.51,0.34c0.21,0.22,0.54,0.53,0.39,0.54c0.59,0.06,0.67,0.61,1.49,0.73c-0.03,0.1,0.47,0.32,0.24,0.46
						c0.62,0.32-0.04-0.23,0.07-0.3c1.1,0.33,1.81,1.77,3.23,2.46c1.1,0.77,1.5,0.73,2.46,1.58c0.15,0.43-0.49-0.04-0.49-0.04
						c0.3,0.63,0.67,0.98,1.11,1.45c-0.14-0.06-0.13,0.09-0.11,0.31c0.3,0.41,0.51,0.07,0.73,0.73c-0.15-0.04-0.36-0.08-0.6-0.22
						c0.39,0.44,0.84,0.86,1.19,1.38c-0.08,0.22-0.38-0.23-0.6-0.35c0.39,0.56,0.9,1.52,1.2,1.64c-0.02-0.15-0.03-0.31-0.06-0.46
						c0.1,0.23-0.16,0.2-0.28,0.05c-0.44-0.45-0.27-0.81-0.19-0.89l0.24,0.38c0.34-0.67-0.87-1.58-1.35-2.3l0.56,0.08l-0.81-0.57
						c-0.02-0.22,0.09-0.48,0.39-0.14c-0.21-0.67-0.47-0.37-0.64-0.96c-0.01-0.07,0.02-0.06,0.07-0.03l-0.5-0.42
						c0.15,0.04,0.15-0.28,0.36,0.07c-0.59-1.05-1.49-1.18-1.59-1.69l0.09,0.05c-1.27-1-0.32,0.1-1.44-0.42l-0.14-1.09l-0.31,0.14
						c-0.12-0.12-0.36-0.34-0.24-0.39c-0.62-0.2,0,0.17-0.4,0.11c-0.46-0.71-1.85-1.16-1.74-1.65c-0.36,0.04,0.54,0.57-0.26,0.24
						c0.08-0.59-0.87-0.44-1.38-1.01c0.33-0.12,0.85,0.35,0.34-0.22c-0.6,0.16-1.19-0.78-1.78-0.99c-0.18,0.29-1.26-0.46-2.25-0.79
						c0.11-0.08-1.69-0.96-2.56-1.4l0.05-0.05c-0.3,0.28-1.2-0.14-1.91-0.29c0.1-0.2,0.25-0.24,0.65-0.21l-0.64-0.22
						c-0.19,0.06-0.41,0.05-0.84-0.05l0.25-0.21c-0.87-0.26-1.83-0.24-2.9-0.72c-0.13,0.23,0.69,0.92-0.52,0.78
						c-0.01-0.15,0.01-0.39,0.33-0.36c-0.11-0.01-0.39,0.02-0.58-0.1l0.53-0.1c-0.48-0.23-0.32,0.12-0.72-0.01
						c0.06-0.19-0.27-0.22-0.17-0.35c0.11,0.01,0.33,0.17,0.51,0.14c-0.45-0.15-0.98-0.42-1.13-0.6c0.01,0.12-0.06,0.26-0.41,0.2
						c-0.88-0.19-0.25-0.3-0.74-0.52c-0.24,0.09-0.77-0.19-0.85,0.1c-0.26-0.05-0.28-0.2-0.36-0.3c-0.48,0.04-2.14-0.39-1.69,0.02
						l0.11,0.04c-0.02,0-0.05,0-0.08,0l0,0l0,0c-0.78,0.01-1.54-0.16-2.31-0.35c-0.77-0.17-1.54-0.36-2.3-0.41l0.01-0.1
						c-0.91,0.01-2-0.16-2.66-0.01c-0.26-0.02-0.61-0.23-0.49-0.34c-0.69,0.02-0.78,0.12-1.76-0.12c0.7-0.12-0.23-0.17,0.72-0.07
						c-0.89-0.16-1.08-0.31-2.06-0.11c0.34-0.23-0.66-0.36-1.09-0.3l0.62,0.21c-0.48,0-0.9-0.02-1.32-0.06l0.24-0.33
						c-1.84-0.47-3.32,0.62-4.72-0.05c-0.48,0.24,1,0.15,0.57,0.43c-0.84-0.04-1.73-0.49-2-0.49c-1.17-0.16-1.07,0.52-2.28,0.45
						c0.16,0.11,0.32,0.42-0.57,0.57c-0.84-0.01-1.06-0.43-0.54-0.57c0.2-0.02,0.3,0.01,0.3,0.05c0.27-0.06,0.63-0.12,0.28-0.24
						l-0.1,0.12c-0.43-0.11-1.59,0-1.33-0.22c-0.63,0.16-0.26,0.21,0.22,0.24c-1.09-0.09-1.69,0.1-2.81,0.11
						c0.18,0.05,0.36,0.17,0.18,0.19c-1.64,0.01-0.7,0.29-1.79,0.45c-0.64-0.11,0.18-0.46-0.92-0.17c-0.69-0.04-0.18-0.29,0.08-0.42
						c-0.98,0.36-1.91,0.08-2.5,0.13l0.52-0.18c-0.31,0.1-0.57,0.14-0.84,0.18l0.34,0.19c-0.32,0.01-0.58,0.05-0.59-0.05
						c-0.3,0.2,0.3,0.35-0.3,0.66c-0.43-0.06-1.24,0.32-1.43,0.04c1.32-0.11-0.2-0.3,0.9-0.52c-0.21,0.07-0.47,0.1-0.79,0.12
						c-0.05-0.03,0.03-0.07,0.12-0.11c-1.3-0.06-0.52,0.45-1.81,0.67c0.13-0.2-0.36-0.28-0.57-0.2c0.52-0.09,0.3,0.24-0.15,0.47
						c-0.85,0.03-0.87,0.28-1.31,0.36l0.5-0.04c-0.13,0.21-0.55,0.27-1.11,0.44c-0.08-0.13,0.5-0.2,0.28-0.22
						c-0.57,0.42-1.5,0.01-2.34,0.41c-0.44-0.02-0.12-0.32-0.5-0.31c-0.93,0.47-1.13,0.04-2.12,0.49c0.36,0.15,0.4,0.08-0.27,0.5
						l1.66-0.61l-1,0.62c0.51-0.13,1.04-0.43,1.36-0.47c-0.47,0.32-0.43,0.25-0.14,0.38c-0.79-0.16-1.34,0.55-2.2,0.55l-0.13-0.58
						c-1.29,0.09-2.07,0.91-3.67,1.28l0.53-0.06c-0.14,0.29-0.95,0.33-1.42,0.61c-0.02-0.2-0.35-0.16-0.61-0.2
						c0.08,0.13-1.14,0.38-1.14,0.81l-0.77,0.02c-1.28,0.37-1.2,1.07-2.39,1.5c0.27-0.35-0.32-0.25,0.41-0.72
						c-0.39,0.16-0.76,0.28-0.71,0.41c-0.28-0.02-0.97,0.72-1.4,0.71c-0.13,0.15-0.09,0.37-0.53,0.55
						c-0.06-0.01-0.04-0.09-0.04-0.09c0.04,0.09-0.62,0.43-0.15,0.45c-1.45,0.01-3.22,1.68-4.46,1.81
						c-0.77,0.53-1.69,1.17-2.38,1.65c0.01-0.08-0.05-0.08,0.09-0.15c-1.08,0.48-0.27,0.87-1.47,1.45c-0.74,0.13,0.47-0.54,0.06-0.4
						c-0.54-0.43-1.24,1.02-2.17,1.28l0.15-0.16c-0.67,0.28-1.15,1.24-1.98,1.99c0,0,0-0.08-0.06-0.08
						c-0.34,0.76-1.28,1.86-1.89,2.74c0.02-0.42,0.22-0.46-0.11-0.47c-0.29,0.39,0.4,0.17-0.16,0.94c-0.32,0.14-0.81,0.63-1.1,0.54
						l0.55-0.74c-0.57,0.15-0.71,0.96-1.05,1.31l-0.09-0.14c-0.75,1.22-0.43,1.44-1.18,2.75l0.18-0.08
						c-0.02,0.9-0.49,0.53-0.58,1.39c-0.16,0.02-0.31,0.05-0.46,0.08c-0.05,0.28-0.13,0.76-0.21,1.3c-0.04,0.55-0.13,1.13-0.17,1.61
						c-0.19-0.59-0.04-1.77,0.07-2.5c-0.23,0.51-0.52,1.82-0.4,2.14c0.02-0.22-0.01-0.52,0.11-0.72c0.12,0.73,0.09,1.6,0,2.67
						c-0.35-0.13-0.53,0.58-0.49,1.43c-0.04,0.85,0.14,1.8-0.1,2.27c0.65,1.88,1.02,3.86,2.35,5.78c0.04-1,0.39,0.54,0.81,0.08
						c0.32,0.41,0.45,0.55,0.45,0.62c0.23,0.48,0.45,0.98,0.74,1.44c0.13,0.4-0.44-0.28-0.51-0.15c0.76,0.88,0.14,0.53,0.55,1.22
						c0.04-0.26,0.5,0.08,0.93,0.59c-0.16-0.28-0.33-0.56-0.47-0.84c1.38,0.87,0.65,1.36,2.12,2.15l-0.52-0.18
						c0.69,0.49,2.47,1.87,3.41,1.88c0.08,0.14,0.16,0.39-0.17,0.22c1.63,1.14,4.04,1.69,5.28,2.58l-0.2,0.07
						c0.35,0.12,0.69-0.01,1.05,0.31c-0.05,0.05-0.19,0.08-0.04,0.15c0.2,0.02,0.98,0.15,1.4,0.39l-0.45,0.01
						c1.7,0.87,2.87,0.63,4.39,1.01c-0.14,0.41,1.24,1,1.95,1.25l-0.04,0.05c2.12,0.64,3.72,0.54,5.73,0.76
						c1.15,0.7,4.16,0.92,6.14,1.37c-0.3-0.11,0.09-0.34,0.45-0.34c0.46,0.15,1.33-0.18,1.22,0.22l-0.17-0.02
						c0.32,0.42,1.3,0.41,2.06,0.47l0.16-0.52c1.94,0.91,5.2-0.06,6.27,0.61c0.48-0.13,1.07-0.13,1.55-0.27l-0.02,0.28
						c1.33,0.05,2,0.07,3.64-0.08l-0.33,0.22c0.93-0.02,1.12-0.87,1.97-0.95l0.28,0.4c1.61-0.11,3.28,0.09,4.82-0.47
						c-0.02,0.06-0.05,0.19-0.31,0.24c0.76-0.08,2.96-0.08,2.6-0.63c0.07,0.37,1.66-0.2,2.48-0.52l-0.09,0.3
						c0.67-0.48,0.67-0.58,1.66-0.85c0.25-0.01,0.25,0.18-0.08,0.17c0.82,0,0.57-0.37,1.56-0.42l-0.32,0.25
						c0.82-0.15,0.74-0.23,1.14-0.52c0.49-0.2,1.55-0.27,1.73-0.05c0.08-0.18,0.47-0.48,0.96-0.52c0.09,0.08-0.07,0.18-0.15,0.22
						c1.4-0.15,1.92-0.82,2.92-0.8c0.04,0.08,0.12,0.11,0.2,0.12c-1.07,0.29-1.94,0.49-1.86,0.45c0.06,0.25,0.94,0.07,0.34,0.59
						c0.66-0.36,1.73-1.09,2.6-1.23c0.05,0.01,0.09,0.02,0.14,0.05l-0.08,0.05c0.2-0.03,0.37-0.1,0.52-0.19
						c0.28-0.04,0.46-0.06,0.72-0.14c0.16,0.17,1.02-0.21,1.45-0.33c-0.12-0.26,0.45-0.39-0.15-0.44c0.07,0-0.07,0.06-0.35,0.16
						c-0.06,0.03-0.14,0.06-0.17,0.09l0.02-0.03c-0.28,0.09-0.64,0.22-1.05,0.36c0.29-0.24,0.61-0.47,1.12-0.47
						c0.16-0.24,0.34-0.49,0.45-0.62c0.7,0.19,1.88-0.02,2.12,0.16c1.23-0.6,2.98-1.24,3.56-2.07c0.33-0.21,0.47-0.03,0.64-0.01
						c-0.19,0.14-0.43,0.23-0.52,0.35c0.67-0.41,2.08-0.98,2.09-1.39c0.96-0.26-0.35,0.54,0.84-0.08l-0.11,0.18
						c2.66-0.65,3.38-2.77,6.23-3.69c-0.2,0.07-0.29,0.11-0.36,0.08c3.03-1.53,5.4-4.24,7.98-6.37c0.69-0.66,0.61-0.87,0.8-1.45
						l0.36,0.02l0.31-1c0.26-0.66,0.78-1.04,1.22-1.55c0.23-0.25,0.46-0.52,0.65-0.84c0.18-0.33,0.32-0.72,0.39-1.17l-0.28,0.13
						c0.31-0.57,0.6-1.93,0.78-1.77c-0.02-0.08-0.15-0.26,0.02-0.48l0.16,0.02l0.07-0.8l-0.01-0.8c0.29-1.2,0.64,0.29,0.81-1.55
						c-0.02-0.71-0.51-1.93-0.59-1.66c0,0.27-0.07,0.69-0.23,0.71l-0.1-0.59c-0.47-0.09-0.96-0.43-1.24,0.9
						c0.12,0.3,0.17,0.62,0.25,0.93l-0.24,0.28l0.04-0.77c-0.24,0.43-0.07,0.71,0.04,1.04c-0.13,0.06-0.24,0.18-0.31,0.35
						c0.09,0.32,0.2,0.64,0.28,0.98c-0.21,0.07-0.25-0.47-0.5,0.1c0.09,0.46,0.5-0.31,0.45,0.42c-0.33,0.39-0.43,0.21-0.43,0.77
						c-0.14,0.03-0.17-0.1-0.16-0.31c-0.02,0.48-0.34,1.18-0.22,1.5c-0.42,0.33-0.62,1.49-1.01,1.24c0.01,0.17-0.08,0.91-0.32,1.28
						c-0.01-0.95-0.92,1.37-1.29,0.84c0.04,0.76-1.13,1.82-1.69,2.75c0.01-0.07,0.04-0.21,0.12-0.26c-0.44,0.41-0.67,0.43-0.99,0.64
						c0.22,0.33-0.4,1.04-0.62,1.57c-0.8,0.21,0.03-0.64-0.39-0.76c0.26,0.22-0.75,1.08-0.39,1.11c-0.58,0.19-0.45,0.23-0.88,0.17
						c0.24,0.45-0.36,0.39-0.55,0.92c-0.8,0.31-0.44-0.23-1.07,0.43C108.86,82.05,109.41,81.45,109.4,81.44z M90.26,91.34
						L90.26,91.34c0.18-0.06,0.33-0.11,0.43-0.15C90.59,91.22,90.47,91.27,90.26,91.34z M88.48,91.84c0.22-0.05,0.49-0.11,0.77-0.19
						c0.09,0.07,0.05,0.19-0.13,0.24C89.21,91.79,88.77,91.85,88.48,91.84z M92.81,92.61c-0.27,0.13-0.38,0.11-0.44,0.06
						c0.13-0.05,0.28-0.11,0.49-0.19c0.01-0.01,0.02-0.03,0.02-0.04C92.87,92.5,92.85,92.55,92.81,92.61z"/>
					<path class="st1" d="M93.21,92.09c0.04-0.02,0.06-0.04,0.11-0.06c-0.07-0.01-0.13-0.01-0.19-0.01
						c-0.02,0.04-0.05,0.08-0.07,0.12C93.11,92.13,93.16,92.11,93.21,92.09z"/>
					<path class="st1" d="M92.21,45.21l-0.04-0.01c0.03,0.02,0.06,0.03,0.07,0.06C92.23,45.23,92.23,45.22,92.21,45.21z"/>
					<polygon class="st1" points="63.33,94.48 63.33,94.55 63.49,94.49 					"/>
					<path class="st1" d="M101.83,48.74c0.01,0.03,0.04,0.07,0.1,0.11C101.93,48.83,101.89,48.79,101.83,48.74z"/>
					<path class="st1" d="M105.85,50.44l0.51,0.35C106.15,50.62,105.98,50.52,105.85,50.44z"/>
					<path class="st1" d="M108.77,52.07c0.06-0.02,0.09-0.05,0.12-0.07l0,0L108.77,52.07z"/>
					<path class="st1" d="M56.62,47.3c-0.04,0.01-0.09,0.02-0.12,0.04C56.21,47.46,56.41,47.39,56.62,47.3z"/>
					<path class="st1" d="M72.35,44.74c-0.17,0.06-0.33,0.12-0.51,0.16C72.13,44.9,72.35,44.9,72.35,44.74z"/>
					<polygon class="st1" points="39.93,52.96 39.93,52.96 39.83,53 					"/>
					<path class="st1" d="M71.1,44.92c0.29,0.04,0.52,0.02,0.74-0.03C71.61,44.89,71.34,44.87,71.1,44.92z"/>
					<path class="st1" d="M118.5,62.01l0.05,0.14c0.02-0.01,0.03-0.01,0.05,0L118.5,62.01z"/>
					<path class="st1" d="M118.61,62.15c0.04,0.05,0.06,0.1,0.09,0.15C118.67,62.22,118.65,62.16,118.61,62.15z"/>
					<path class="st1" d="M118.88,62.62l-0.18-0.32C118.74,62.42,118.78,62.57,118.88,62.62z"/>
					<path class="st1" d="M116.42,58.3l-0.11,0.03C116.34,58.33,116.38,58.32,116.42,58.3z"/>
					<path class="st1" d="M115.55,57.32c0.21,0.24,0.37,0.72,0.68,1.02l0.09-0.02C116.07,58.26,115.89,57.41,115.55,57.32z"/>
					<path class="st1" d="M112.08,52.68l0.89,0.75c-0.1-0.21-0.23-0.49,0.22-0.19C112.19,52.11,113.29,53.61,112.08,52.68z"/>
					<path class="st1" d="M109.09,50.66c0.58,0.25,0.07-0.14,0.13-0.18C108.82,50.38,108.73,50.36,109.09,50.66z"/>
					<path class="st1" d="M84.26,43.93l0.08-0.25C83.86,43.67,84.33,43.77,84.26,43.93z"/>
					<polygon class="st1" points="79.29,44.96 79.74,45.13 79.97,44.91 					"/>
					<polygon class="st1" points="76.41,43.09 76.62,43.06 75.82,43.15 					"/>
					<path class="st1" d="M34.37,52.99l0.28,0.21C34.91,52.99,34.8,52.65,34.37,52.99z"/>
					<path class="st1" d="M20.76,66.02c-0.25,0.1-0.56,0.57-0.56,0.94C20.4,66.57,20.68,66.22,20.76,66.02z"/>
					<polygon class="st1" points="58.32,96.86 57.94,96.94 58.66,96.9 					"/>
				</g>
			</g>
		</g>
	</g>
</g>
<g>
	<g>
		<g>
			<g>
				<g>
					<path class="st1" d="M70,58.67c0.06-0.09,0.03-0.28-0.15-0.24l-0.12,0.33L70,58.67z"/>
					<path class="st1" d="M68.81,58.08c-0.2,0.17-0.43,0.45-0.29,0.75c0.19-0.32,0.25-0.19,0.46-0.58c0.18-0.04,0.31,0.1,0.28,0.22
						c0.06-0.09,0.27,0.07,0.37-0.14c-0.23-0.25-0.52-0.25-0.82-0.04C68.74,58.23,68.8,58.14,68.81,58.08z"/>
					<path class="st1" d="M51.84,61.07l0.12-0.01C51.92,61.05,51.88,61.05,51.84,61.07z"/>
					<path class="st1" d="M44.02,68.58c0.02-0.09,0-0.13-0.03-0.14C43.98,68.53,43.98,68.6,44.02,68.58z"/>
					<path class="st1" d="M43.55,70.63c0-0.05,0.01-0.09,0.01-0.13C43.54,70.55,43.52,70.6,43.55,70.63z"/>
					<path class="st1" d="M51.84,61.07c-0.1,0-0.2,0.02-0.31,0.03C51.56,61.21,51.7,61.1,51.84,61.07z"/>
					<path class="st1" d="M66.49,58.98c0.06-0.02,0.1-0.05,0.15-0.1c-0.05,0.02-0.09,0.03-0.14,0.05L66.49,58.98z"/>
					<path class="st1" d="M56.24,59.15l0.08-0.02c0.01-0.04,0.03-0.09,0.03-0.15L56.24,59.15z"/>
					<path class="st1" d="M59.8,58.2c-0.08,0.01-0.06,0.29-0.06,0.42c0.02-0.12,0.07-0.19,0.14-0.23
						C59.87,58.34,59.84,58.28,59.8,58.2z"/>
					<path class="st1" d="M65.61,57.9l0.1-0.05C65.68,57.87,65.64,57.89,65.61,57.9z"/>
					<path class="st1" d="M53.71,59.92c-0.02-0.04-0.05-0.07-0.07-0.08C53.66,59.87,53.68,59.9,53.71,59.92z"/>
					<path class="st1" d="M74.08,59.49c0-0.02,0-0.03,0-0.05C74.06,59.47,74.06,59.49,74.08,59.49z"/>
					<path class="st1" d="M70,57.93l0.06-0.01c0.01-0.05,0.01-0.11,0.01-0.16L70,57.93z"/>
					<path class="st1" d="M44.56,74.4c0-0.01,0-0.01-0.01-0.02C44.47,74.32,44.51,74.36,44.56,74.4z"/>
					<path class="st1" d="M74.21,82.99c-0.37-0.23,0.55-0.36,0-0.6C74.27,82.49,73.76,82.86,74.21,82.99z"/>
					<path class="st1" d="M66.4,58.95c-0.05,0.01-0.1,0.01-0.15,0.01C66.32,58.97,66.37,58.96,66.4,58.95z"/>
					<path class="st1" d="M74.21,82.39L74.21,82.39l-0.06-0.02C74.18,82.37,74.19,82.38,74.21,82.39z"/>
					<path class="st1" d="M51.15,79.42c0.01-0.05-0.01-0.1-0.02-0.15C51.12,79.29,51.13,79.33,51.15,79.42z"/>
					<path class="st1" d="M46.4,75.69l0.08,0.13C46.46,75.76,46.43,75.72,46.4,75.69z"/>
					<path class="st1" d="M54.15,80.24c0.07,0.05,0.08,0.09,0.19,0.09c0-0.02-0.01-0.03-0.02-0.04
						C54.27,80.31,54.22,80.31,54.15,80.24z"/>
					<path class="st1" d="M57.17,81.19c-0.01-0.03-0.03-0.05-0.04-0.07c-0.03,0-0.07-0.01-0.1-0.01L57.17,81.19z"/>
					<path class="st1" d="M83.1,60.95c-0.04-0.09-0.06-0.19-0.06-0.28C83.03,60.88,82.59,60.82,83.1,60.95z"/>
					<path class="st1" d="M66.48,58.82c-0.01,0.07-0.04,0.11-0.08,0.13l0.1-0.02C66.51,58.88,66.51,58.84,66.48,58.82z"/>
					<path class="st1" d="M55.02,78.2l0.43,0.2C55.34,78.32,55.18,78.25,55.02,78.2z"/>
					<path class="st1" d="M92.5,74.05l0.05-0.09C92.51,73.98,92.49,74.01,92.5,74.05z"/>
					<path class="st1" d="M56.8,78.78c0.05,0.12,0.12,0.2,0.2,0.26c0.03-0.02,0.05-0.03,0.07-0.05L56.8,78.78z"/>
					<path class="st1" d="M83.04,60.67L83.04,60.67L83.04,60.67z"/>
					<path class="st1" d="M79.83,60.56c0.44,0.11,0.28-0.31,0.42-0.49c0.56,0.02,0.19,0.32,0.33,0.55c0.35-0.02,0.68-0.29,0.93-0.22
						c0,0.06,0.05,0.1-0.03,0.16c0.43-0.22,1.03,0.26,1.53,0.02c0.02,0.04,0.03,0.07,0.03,0.1c-0.01-0.2,0.03-0.38,0.08-0.51
						c0.2,0.05,0.44-0.12,0.44,0.14c-0.12-0.04-0.16,0.05-0.24,0.1l0.24-0.04c0.09,0.39-0.32,0.03-0.39,0.28
						c0.43,0.01,1-0.14,1.27,0.07c-0.04,0.34-0.75-0.13-0.43,0.29l-0.44-0.26c0.21,0.62-0.28-0.12-0.11,0.53
						c0.59,0.26,0.74,0.06,1.32,0.36c0.2-0.13,0.05-0.28,0.25-0.41c0.99,0,0.39,1.02,1.17,0.87c0.24-0.14,0.47-0.51,0.83-0.11
						l-0.3,0.29c0.55,0.28,0.56-0.37,1.05,0.14c-0.16,0.07-0.5-0.08-0.43-0.01c0.26,0.44,0.36-0.07,0.66,0.07l-0.09,0.34
						c0.6,0.26,1.38,0.35,2.02,0.71c-0.09,0.06-0.25,0.09-0.16,0.27c0.43,0.17,0.85,0.43,1.17,0.78c0.33,0.34,0.66,0.68,0.87,1.06
						l0.43,0.01c0.05,0.06,0.01,0.19-0.09,0.17c0.15,0.3,0.14-0.12,0.34-0.09c0.15,0.12,0.06,0.29-0.09,0.27
						c0.56,0.22,1.49,0.94,1.45,1.63l-0.13-0.06c0.1,0.43,0.82,0.19,0.68,0.71l-0.07-0.06c0.3,0.93,0.48,2.06-0.04,2.7
						c0.4,0.24-0.46,0.82,0.08,1.09c-0.5,0.41-0.56,0.2-1.07,0.78c-0.13,0.16,0.11,0.46,0,0.71l-0.25-0.18l0.03,0.49l-0.4-0.08
						c-0.03,0.08-0.06,0.17-0.1,0.24c0.09-0.05,0.24-0.07,0.3,0c-0.17,0.4-0.86,0.55-0.96,0.44c-0.15,0.29-0.34,0.56-0.55,0.82
						c-0.06-0.11,0.04-0.24,0.09-0.38c-0.21,0.56-0.28-0.2-0.47,0.31c0.09,0.02,0.09,0.17,0.12,0.22c-0.3,0-0.71,0.33-1.02,0.6
						L90,75.75c-0.32,0.17-0.63,0.39-0.94,0.63c-0.33,0.22-0.68,0.43-1.05,0.62c0.31-0.05,0.42,0.31,0.21,0.46l-0.23-0.25
						c-0.05,0.25,0.28-0.01,0.1,0.36c-0.3,0.11-0.35-0.24-0.24-0.41l-0.29,0.28c-0.06-0.08,0-0.16-0.04-0.29
						c-0.05,0.26-0.73-0.04-0.79,0.37l-0.06-0.08c-0.76,0.33-1.06,0.58-1.71,0.81c0.08,0.27-0.19,0.3-0.31,0.58
						c-0.51,0.1-1.11,0.05-1.69,0.23c-0.37,0.25-0.06,0.26-0.2,0.48c-0.1-0.24-0.68-0.05-0.42-0.31c-0.69,0.25-0.89,0.28-1.76,0.69
						c0.12,0.08,0.24,0.1,0.2,0.2c-0.16,0.08-0.4-0.02-0.4-0.14l0.04-0.04c-0.95,0.63-2.51-0.29-3.24,0.37l0.04-0.03l-0.82,0.38
						c-0.4,0,0.21-0.22-0.1-0.34c-0.88,0.54-1.47,0.12-2.21,0.45c-0.33-0.36-0.85-0.3-1.4-0.22c-0.55,0.08-1.13,0.16-1.53-0.07
						l0.05,0.18c-0.2,0.18-0.25-0.1-0.41-0.13c0.02,0.14,0.23,0.15,0.1,0.25c-1.76,0.26-3.64-0.29-5.4-0.6
						c-0.65-0.09-0.46,0.9-1.24,0.37l0.27-0.3c-0.68,0.12-1.35,0.04-2.02-0.06c-0.66-0.13-1.32-0.26-1.99-0.2
						c0.09-0.06,0.11-0.16,0.24-0.14c-0.23-0.27-0.99-0.21-1.03-0.02c-0.19-0.07-0.01-0.18-0.11-0.31c-0.23-0.2-0.74,0.15-0.83-0.12
						c-0.02-0.04,0.09-0.06,0.15-0.07c-0.2,0.07-0.8-0.21-0.7,0.09c-0.44-0.25-0.93-0.13-1.25-0.39c-0.33,0.23-0.75-0.37-0.96,0.03
						c0.17-0.42-0.68-0.63-1.04-0.53c0.14-0.09-0.2-0.22-0.03-0.36c-0.33-0.11-0.66-0.14-0.68,0.1c-0.39-0.74-1.36-0.1-1.41-0.88
						c-0.53-0.08-0.99-0.24-1.46-0.38c-0.48-0.13-0.91-0.32-1.32-0.53c0.26-0.36,0.88,0.51,1.09,0.06c-0.82-0.27-1.48-0.2-2.11-0.8
						c-0.14-0.19,0.22-0.08,0.32-0.1c-0.39-0.18-0.71-0.45-1.02-0.69c-0.3-0.26-0.55-0.53-0.91-0.7c0.03-0.03,0.12,0,0.2,0.03
						c-0.12-0.09-0.19-0.28-0.33-0.13l0.14,0.06c-0.05,0.38-0.88,0-1,0.05c0.61-0.18-0.35-0.69,0.48-0.83
						c-0.09-0.05-0.24-0.09-0.34,0.01c-0.06-0.14-0.02-0.22,0.2-0.2c-0.41-0.33-0.48-0.07-0.7-0.48c0.09-0.05,0.16,0.01,0.29-0.01
						c-0.27-0.1-0.56-0.22-0.68-0.61c0.07,0,0.12-0.07,0.17,0.03c-0.16-0.29-0.33-0.52-0.53-0.77c-0.22-0.25-0.3-0.56-0.25-0.94
						c0.45,0.17,0.11-0.26,0.48-0.31c-0.06-0.12-0.09-0.24-0.11-0.37l-0.2,0.15c0.05-0.33-0.19-0.67-0.04-0.95l0.13,0.28l0-0.32
						l0.07-0.32c-0.08,0.1-0.18,0.21-0.24,0.32c-0.1-0.39-0.48-0.06-0.23-0.52c0,0.11,0.12-0.36,0.39-0.47l0,0
						c-0.07-0.22-0.09-0.44,0.13-0.65c0.14-0.01,0.34,0.24,0.43,0.23c-0.18-0.29,0.29-0.79,0.19-1.14c0.02,0.11,0.18,0.22,0.22,0.22
						l-0.11-0.27c0.17-0.09,0.22-0.08,0.33,0.03c0.35-0.37-0.48-0.16,0.06-0.52c-0.01,0.05,0.03,0.06,0,0.16
						c0.42-0.44,0.71-0.98,1.19-1.3c0.37,0.16-0.29,0.41,0.06,0.51c0.24-0.32,0.52-0.65,0.79-0.98c0.27-0.33,0.57-0.66,0.94-0.82
						l-0.15,0.05c-0.19-0.5,0.65-0.1,0.86-0.53c-0.07,0.09,0.04,0.32,0.03,0.26c0.49-0.24,0.92-0.65,1.59-1.2l-0.03,0.17
						c0.34-0.06,0.81-0.3,1.16-0.38c0.04-0.17,0.24-0.23,0.05-0.36c1.28,0.26,1.83-1.13,2.96-0.85c-0.11,0.03-0.23,0.2-0.14,0.17
						l0.76-0.35c-0.13-0.2-0.14-0.1-0.37-0.23c0.06-0.16,0.26-0.33,0.46-0.38c-0.32,0.25,0.11,0.36,0.3,0.44
						c-0.05-0.06-0.01-0.15-0.05-0.22c0.53,0.28-0.05-0.47,0.6-0.37l0,0.13c0.2-0.13,0.36-0.33,0.61-0.35
						c0.16,0.24-0.2,0.17-0.16,0.39c0.32-0.09,0.53-0.64,0.9-0.45c-0.12,0.1-0.33,0.15-0.45,0.26c0.4,0.23,0.42,0.15,0.67,0.14
						l-0.03,0l0.59,0.01l-0.16-0.05c0.27-0.78,0.81-0.31,1.29-0.85c-0.47,0.52-0.05,0.26-0.03,0.57c0.16,0.06,0.39,0.11,0.34,0.21
						c0.22-0.29,0.47,0.11,0.78-0.3c0.03,0.09,0.28-0.04,0.26,0.21c0.33-0.13-0.11-0.15-0.1-0.28c0.48-0.43,1.3,0.24,2.01-0.32
						c0.64-0.27,0.73-0.61,1.35-0.82c0.22,0.14-0.14,0.37-0.14,0.37c0.35,0.12,0.6,0.07,0.91-0.06c-0.06,0.09,0.01,0.16,0.12,0.26
						c0.25-0.04,0.15-0.37,0.49-0.25c-0.05,0.11-0.12,0.29-0.23,0.41c0.29-0.11,0.58-0.32,0.89-0.42c0.09,0.17-0.18,0.26-0.28,0.38
						c0.34-0.1,0.9-0.18,1-0.46l-0.23-0.09c0.13-0.02,0.07,0.23-0.02,0.28c-0.29,0.22-0.44-0.08-0.46-0.18l0.22-0.07
						c-0.26-0.58-0.89,0.14-1.34,0.14l0.16-0.43l-0.44,0.38c-0.11-0.1-0.19-0.33,0.03-0.41c-0.34-0.18-0.28,0.17-0.57-0.04
						c-0.03-0.03-0.02-0.05,0.01-0.07l-0.31,0.15c0.05-0.09-0.08-0.29,0.12-0.24c-0.6-0.21-0.89,0.39-1.13,0.1l0.04-0.03
						c-0.77,0.24-0.04,0.31-0.59,0.74l-0.49-0.7l-0.04,0.31c-0.08,0-0.25,0-0.23-0.13c-0.27,0.24,0.07,0.13-0.08,0.34
						c-0.43-0.24-1.05,0.29-1.21-0.18c-0.1,0.25,0.4,0.11,0.01,0.34c-0.2-0.5-0.46,0.17-0.86-0.01c0.06-0.28,0.42-0.2,0.03-0.38
						c-0.13,0.49-0.71,0.02-1,0.16c0.06,0.36-0.62,0.29-1.09,0.53c0.01-0.12-0.99,0-1.48,0.02l0-0.06c0.01,0.38-0.48,0.45-0.81,0.62
						c-0.05-0.21-0.01-0.32,0.15-0.46l-0.33,0.09c-0.04,0.13-0.13,0.22-0.33,0.32l0-0.29c-0.44,0.13-0.77,0.58-1.37,0.6
						c0.06,0.25,0.66,0.52,0.15,0.88c-0.07-0.12-0.17-0.34-0.04-0.44c-0.04,0.03-0.14,0.17-0.25,0.15l0.15-0.3
						c-0.28-0.01-0.06,0.23-0.27,0.28c-0.06-0.19-0.19-0.08-0.22-0.24c0.04-0.04,0.2,0.02,0.25-0.08c-0.24,0.05-0.55,0.03-0.69-0.08
						c0.06,0.1,0.09,0.25-0.06,0.33c-0.41,0.18-0.23-0.16-0.51-0.15c-0.05,0.17-0.37,0.15-0.26,0.43c-0.12,0.05-0.2-0.07-0.28-0.12
						c-0.16,0.21-0.99,0.47-0.62,0.65l0.06,0l-0.03,0.03l0,0l0,0c-0.56,0.59-1.49,0.55-2.1,1.04l-0.05-0.09
						c-0.33,0.34-0.83,0.6-0.98,0.95c-0.11,0.07-0.37,0.03-0.39-0.1c-0.24,0.28-0.2,0.39-0.7,0.57c0.17-0.35-0.19-0.05,0.21-0.32
						c-0.41,0.21-0.6,0.16-0.82,0.67c-0.04-0.31-0.47,0-0.58,0.22l0.36-0.1c-0.15,0.2-0.32,0.34-0.5,0.48l-0.15-0.32
						c-0.5,0.2-0.7,0.63-0.83,1.06c-0.14,0.43-0.31,0.75-0.78,0.9c0.03,0.18,0.14,0.08,0.24-0.02c0.11-0.09,0.25-0.17,0.29,0
						c-0.28,0.33-0.91,0.54-0.99,0.67c-0.49,0.5,0.18,0.74-0.15,1.32c0.14-0.05,0.46-0.01,0.43,0.45c-0.19,0.39-0.59,0.43-0.66,0.12
						c0.02-0.11,0.08-0.15,0.11-0.14c0-0.15,0.02-0.36-0.17-0.21l0.1,0.09c-0.23,0.18-0.26,0.86-0.44,0.67
						c0.07,0.39,0.18,0.18,0.27-0.07c-0.22,0.59-0.17,0.95-0.18,1.59c0.05-0.11,0.18-0.2,0.19-0.11c-0.05,0.93,0.26,0.38,0.39,0.96
						c-0.07,0.36-0.46-0.02-0.13,0.53c0,0.4-0.28,0.17-0.42,0.04c0.39,0.49,0.19,1.11,0.34,1.43l-0.23-0.24
						c0.14,0.14,0.21,0.28,0.29,0.42l0.13-0.26c0.05,0.18,0.12,0.31,0.03,0.36c0.22,0.09,0.28-0.31,0.64-0.1
						c0,0.27,0.45,0.53,0.25,0.75c-0.32-0.65-0.24,0.27-0.6-0.25c0.09,0.09,0.16,0.23,0.24,0.38c-0.01,0.04-0.07,0.02-0.11-0.01
						c0.2,0.73,0.49,0.05,0.92,0.62c-0.19,0.04-0.15,0.35-0.05,0.42c-0.18-0.24,0.14-0.3,0.4-0.19c0.21,0.41,0.42,0.27,0.57,0.44
						l-0.14-0.23c0.19-0.06,0.33,0.11,0.58,0.28c-0.08,0.12-0.26-0.12-0.23,0c0.45,0,0.32,0.79,0.85,0.9
						c0.1,0.23-0.19,0.27-0.09,0.46c0.57,0.14,0.31,0.57,0.89,0.73c0-0.28-0.05-0.25,0.4-0.23c-0.29-0.1-0.56-0.25-0.84-0.39
						l0.67,0.07c-0.21-0.16-0.54-0.23-0.65-0.36c0.34,0.01,0.28,0.04,0.29-0.19c0.08,0.52,0.7,0.27,0.92,0.69l-0.33,0.49
						c0.42,0.57,1.13,0.39,1.8,0.88l-0.19-0.21c0.21-0.16,0.47,0.21,0.75,0.25c-0.11,0.16,0.01,0.31,0.06,0.47
						c0.05-0.13,0.54,0.29,0.78-0.05l0.23,0.38c0.58,0.36,0.92-0.22,1.48,0.09c-0.26,0.13-0.04,0.37-0.49,0.34
						c0.2,0.09,0.36,0.19,0.42,0.06c0.08,0.16,0.65-0.05,0.77,0.19c0.11-0.05,0.21-0.24,0.43-0.14c0.01,0.05-0.03,0.09-0.03,0.09
						c0.03-0.09,0.39,0,0.27-0.28c0.41,0.83,1.74,0.49,2.14,1.16c0.46,0.08,1.02,0.13,1.43,0.21c-0.04,0.05-0.02,0.1-0.1,0.06
						c0.52,0.31,0.47-0.47,1.06-0.13c0.26,0.39-0.38,0.09-0.2,0.26c-0.04,0.66,0.79,0.09,1.16,0.53l-0.11,0.02
						c0.3,0.28,0.86-0.1,1.4,0.04c0,0-0.04,0.05-0.02,0.1c0.42-0.25,1.14-0.28,1.68-0.31c-0.19,0.23-0.26,0.1-0.19,0.37
						c0.24-0.01-0.02-0.42,0.46-0.43c0.14,0.16,0.46,0.32,0.48,0.6l-0.45-0.04c0.19,0.38,0.58,0.06,0.81,0.15l-0.05,0.15
						c0.69,0.03,0.74-0.38,1.47-0.3l-0.07-0.12c0.43-0.36,0.32,0.24,0.74-0.02l0.1,0.4c0.27-0.07,0.95-0.32,1.42-0.39
						c-0.28,0.28-0.84,0.43-1.2,0.57c0.26,0.03,0.9,0.01,1.04-0.18c-0.11,0.04-0.25,0.13-0.35,0.07c0.34-0.3,0.76-0.44,1.28-0.43
						c-0.11,0.76,1.36,0.23,1.75,0.8c0.93-0.31,1.86,0.1,2.95-0.04c-0.42-0.57,0.32-0.04,0.21-0.64c0.25-0.06,0.34-0.05,0.37-0.02
						L75,82.69c0.2,0.16-0.23,0.15-0.19,0.29c0.56,0,0.26,0.25,0.64,0.37c-0.1-0.21,0.16-0.33,0.49-0.29l-0.47-0.23
						c0.74-0.42,0.73,0.43,1.47,0.01l-0.22,0.22c0.39-0.15,1.49-0.18,1.8-0.75c0.08,0.06,0.2,0.21,0.03,0.28
						c0.48-0.05,0.99-0.27,1.47-0.45c0.48-0.2,0.93-0.39,1.33-0.32l-0.04,0.16c0.17-0.08,0.24-0.34,0.5-0.25
						c0,0.06-0.04,0.16,0.05,0.15c0.08-0.07,0.41-0.36,0.66-0.33l-0.16,0.21c0.97-0.06,1.29-0.79,2.01-1.1
						c0.13,0.43,0.88,0.31,1.26,0.26l0.01,0.06c1.08-0.3,1.65-1.02,2.51-1.57c0.4,0.11,0.9-0.12,1.44-0.37
						c0.55-0.24,1.1-0.58,1.62-0.76c-0.18,0.02-0.16-0.3-0.03-0.44c0.26-0.06,0.4-0.61,0.59-0.26l-0.08,0.04
						c0.38,0.23,0.73-0.19,1.06-0.43l-0.28-0.45c0.66,0.01,1.13-0.55,1.52-1.05c0.42-0.48,0.64-1.04,1.12-1.06
						c0.06-0.28,0.25-0.55,0.26-0.86l0.24,0.16c0.43-0.63,0.68-0.94,0.89-1.91l0.13,0.25c0.19-0.55-0.55-0.86-0.54-1.32l0.43-0.09
						c0.05-0.47,0.21-0.94,0.17-1.42c-0.01-0.48-0.04-0.98-0.39-1.36c0.06,0,0.19-0.01,0.25,0.13c-0.06-0.21-0.13-0.65-0.24-0.99
						c-0.11-0.35-0.35-0.53-0.56-0.34c0.32-0.16-0.39-0.88-0.81-1.13l0.27-0.1c-0.54-0.11-0.62-0.06-1.03-0.42
						c-0.05-0.12,0.1-0.23,0.15-0.05c-0.16-0.43-0.39-0.1-0.65-0.55l0.27,0.01c-0.3-0.32-0.34-0.23-0.66-0.25
						c-0.27-0.1-0.52-0.63-0.43-0.84c-0.15,0.08-0.46,0.1-0.61-0.11c0.03-0.1,0.14-0.09,0.2-0.08c-0.46-0.59-1.02-0.41-1.28-0.88
						c0.04-0.08,0.04-0.14,0.02-0.18c0.49,0.29,0.83,0.61,0.79,0.6c0.16-0.2-0.2-0.53,0.31-0.59c-0.41-0.1-1.2-0.06-1.51-0.41
						c-0.01-0.03-0.01-0.06,0-0.11l0.05,0c-0.07-0.08-0.17-0.11-0.26-0.12c-0.1-0.11-0.16-0.19-0.28-0.27
						c0.06-0.22-0.41-0.35-0.61-0.46c-0.12,0.26-0.36,0.08-0.22,0.41c-0.02-0.03,0.05-0.01,0.19,0.05c0.03,0.01,0.07,0.02,0.1,0.02
						l-0.03,0.01c0.13,0.07,0.32,0.13,0.5,0.25c-0.22,0.02-0.45,0.05-0.59-0.2c-0.19,0.11-0.39,0.21-0.49,0.26
						c-0.09-0.49-0.53-0.95-0.5-1.21c-0.7-0.15-1.55-0.56-2.14-0.24c-0.2-0.01-0.15-0.22-0.19-0.32c0.13-0.01,0.25,0.04,0.33,0
						c-0.41-0.02-1.11-0.34-1.32-0.02c-0.4-0.32,0.37-0.23-0.28-0.4l0.12-0.08c-0.53-0.51-1.13-0.43-1.72-0.37
						c-0.6,0.06-1.18,0.07-1.8-0.44c0.09,0.07,0.13,0.1,0.14,0.16c-1.55-0.71-3.39-0.4-4.93-1.12c-0.45-0.16-0.53,0.07-0.83,0.21
						l-0.07-0.31l-0.52,0.29c-0.7,0.18-1.12-0.83-2.03-0.42l0.1,0.21c-0.31-0.06-0.99,0.05-0.93-0.18c-0.03,0.04-0.11,0.21-0.23,0.1
						l0-0.16l-0.78,0.25c-0.59-0.13,0.11-0.62-0.76-0.68c-0.33,0.05-0.93,0.44-0.8,0.55c0.13,0.01,0.33,0.11,0.34,0.26l-0.29,0.08
						c-0.06,0.46-0.27,0.94,0.43,1.28l0.49-0.27l0.15,0.23l-0.41,0c0.23,0.22,0.38,0.03,0.55-0.09c0.04,0.12,0.1,0.21,0.2,0.25
						l0.49-0.43c0.05,0.18-0.23,0.36,0.09,0.46c0.23-0.2-0.2-0.41,0.18-0.54c0.23,0.22,0.15,0.38,0.43,0.22
						c0.03,0.12-0.03,0.19-0.14,0.24c0.25-0.13,0.65-0.01,0.79-0.25c0.23,0.28,0.83-0.01,0.77,0.43c0.08-0.1,0.46-0.31,0.68-0.32
						c-0.46,0.48,0.84,0.1,0.67,0.67c0.35-0.44,1.1-0.08,1.67-0.28c-0.04,0.03-0.1,0.1-0.15,0.07c0.29,0.08,0.36,0.22,0.54,0.35
						c0.1-0.38,0.57-0.39,0.86-0.58c0.3,0.44-0.3,0.42-0.24,0.79c0.03-0.32,0.68-0.2,0.61-0.49c0.24,0.28,0.22,0.15,0.31,0.5
						c0.14-0.47,0.27-0.04,0.56-0.29c0.36,0.31,0.01,0.47,0.48,0.42C80.25,60.48,79.83,60.56,79.83,60.56z M89.96,63.43L89.96,63.43
						c-0.08-0.04-0.15-0.07-0.2-0.1C89.81,63.36,89.87,63.38,89.96,63.43z M90.72,63.9c-0.08-0.07-0.2-0.14-0.32-0.21
						c0.03-0.1,0.11-0.16,0.18-0.11C90.5,63.6,90.65,63.76,90.72,63.9z M90.07,61.22c0.16,0.04,0.17,0.11,0.16,0.17
						c-0.07-0.03-0.15-0.06-0.25-0.09l-0.03,0.02C89.99,61.27,90.03,61.24,90.07,61.22z"/>
					<path class="st1" d="M89.65,61.41c-0.02,0-0.04,0-0.06-0.01c0.02,0.04,0.03,0.07,0.05,0.1l0.09-0.05L89.65,61.41z"/>
					<path class="st1" d="M51.98,61.06l-0.02,0c0.02,0,0.04,0.01,0.05,0.02C52,61.07,51.99,61.06,51.98,61.06z"/>
					<polygon class="st1" points="92.96,73.27 93.02,73.31 93.01,73.22 					"/>
					<path class="st1" d="M57.07,60.24c0.02,0.02,0.04,0.04,0.08,0.05C57.14,60.27,57.11,60.26,57.07,60.24z"/>
					<path class="st1" d="M59.17,59.77l0.32,0.03C59.35,59.78,59.25,59.77,59.17,59.77z"/>
					<path class="st1" d="M60.83,59.57c0.01-0.05,0.01-0.09,0.01-0.12l0,0L60.83,59.57z"/>
					<path class="st1" d="M47.65,74.29c0.02,0.01,0.03,0.02,0.05,0.03C47.84,74.38,47.76,74.33,47.65,74.29z"/>
					<path class="st1" d="M45.34,67.97c0.02,0.09,0.05,0.18,0.05,0.27C45.45,68.12,45.48,68.03,45.34,67.97z"/>
					<polygon class="st1" points="54.97,78.18 54.97,78.18 55.02,78.2 					"/>
					<path class="st1" d="M45.28,68.56c0.09-0.11,0.12-0.21,0.11-0.32C45.34,68.33,45.27,68.45,45.28,68.56z"/>
					<path class="st1" d="M67.97,58.93l0.08,0.01c0-0.02,0-0.03,0.01-0.05L67.97,58.93z"/>
					<path class="st1" d="M68.06,58.89l0.09-0.04C68.1,58.86,68.07,58.86,68.06,58.89z"/>
					<path class="st1" d="M68.33,58.78l-0.18,0.08C68.21,58.85,68.29,58.86,68.33,58.78z"/>
					<path class="st1" d="M65.77,58.93l-0.02,0.1C65.77,59.01,65.77,58.97,65.77,58.93z"/>
					<path class="st1" d="M65.11,59c0.16,0.01,0.42,0.19,0.63,0.11l0.01-0.08C65.66,59.19,65.24,58.82,65.11,59z"/>
					<path class="st1" d="M62.16,58.09c0.19-0.01,0.39,0,0.58,0c-0.11-0.1-0.27-0.22-0.01-0.28C61.96,57.58,62.91,58.03,62.16,58.09
						z"/>
					<path class="st1" d="M60.38,58.24c0.3-0.1-0.03-0.15-0.03-0.22C60.17,58.15,60.13,58.19,60.38,58.24z"/>
					<path class="st1" d="M48.34,62.88l-0.12-0.23C48.04,62.83,48.27,62.73,48.34,62.88z"/>
					<polygon class="st1" points="47.35,65.45 47.62,65.41 47.53,65.17 					"/>
					<polygon class="st1" points="45.01,65.39 45.05,65.27 44.86,65.68 					"/>
					<path class="st1" d="M56.56,81.28l0.02-0.32C56.4,80.96,56.27,81.29,56.56,81.28z"/>
					<path class="st1" d="M65.86,82.56c0.09,0.16,0.35,0.28,0.52,0.14C66.17,82.67,65.97,82.53,65.86,82.56z"/>
					<polygon class="st1" points="93.11,76.76 93.02,76.96 93.26,76.66 					"/>
				</g>
			</g>
		</g>
	</g>
</g>
</svg>
