{
    "asset" : {
        "generator" : "Khronos glTF Blender I/O v1.4.40",
        "version" : "2.0"
    },
    "scene" : 0,
    "scenes" : [
        {
            "name" : "Scene",
            "nodes" : [
                0
            ]
        }
    ],
    "nodes" : [
        {
            "mesh" : 0,
            "name" : "Line",
            "rotation" : [
                0.7071068286895752,
                0,
                0,
                0.7071067094802856
            ]
        }
    ],
    "materials" : [
        {
            "doubleSided" : true,
            "name" : "Brain Line",
            "pbrMetallicRoughness" : {
                "metallicFactor" : 0.8500000238418579
            }
        }
    ],
    "meshes" : [
        {
            "name" : "Line",
            "primitives" : [
                {
                    "attributes" : {
                        "POSITION" : 0,
                        "NORMAL" : 1,
                        "TEXCOORD_0" : 2
                    },
                    "indices" : 3,
                    "material" : 0
                }
            ]
        }
    ],
    "accessors" : [
        {
            "bufferView" : 0,
            "componentType" : 5126,
            "count" : 13286,
            "max" : [
                309.294921875,
                206.3541259765625,
                -107.89485168457031
            ],
            "min" : [
                -206.60159301757812,
                -206.44699096679688,
                -569.2935180664062
            ],
            "type" : "VEC3"
        },
        {
            "bufferView" : 1,
            "componentType" : 5126,
            "count" : 13286,
            "type" : "VEC3"
        },
        {
            "bufferView" : 2,
            "componentType" : 5126,
            "count" : 13286,
            "type" : "VEC2"
        },
        {
            "bufferView" : 3,
            "componentType" : 5123,
            "count" : 29886,
            "type" : "SCALAR"
        }
    ],
    "bufferViews" : [
        {
            "buffer" : 0,
            "byteLength" : 159432,
            "byteOffset" : 0
        },
        {
            "buffer" : 0,
            "byteLength" : 159432,
            "byteOffset" : 159432
        },
        {
            "buffer" : 0,
            "byteLength" : 106288,
            "byteOffset" : 318864
        },
        {
            "buffer" : 0,
            "byteLength" : 59772,
            "byteOffset" : 425152
        }
    ],
    "buffers" : [
        {
            "byteLength" : 484924,
            "uri" : "data:application/octet-stream;base64,"
        }
    ]
}
